<svg width="24" height="23" viewBox="0 0 24 23" fill="none" xmlns="http://www.w3.org/2000/svg">
<path d="M24 14.9142C24 14.935 24 14.9533 24 14.9728C23.4118 16.767 22.5729 18.3046 21.549 19.7316C20.6145 21.027 19.4691 22.7703 17.4242 22.7703C15.657 22.7703 14.4832 21.6259 12.6721 21.5946C10.7565 21.5634 9.7029 22.5516 7.9513 22.8003C7.75094 22.8003 7.55058 22.8003 7.35409 22.8003C6.06786 22.6128 5.02985 21.5868 4.27362 20.6625C2.04374 17.931 0.32058 14.4025 0 9.8874C0 9.44475 0 9.0033 0 8.56065C0.135735 5.3292 1.69472 2.70178 3.76689 1.42846C4.8605 0.751439 6.36389 0.174659 8.03792 0.432449C8.75537 0.544424 9.48825 0.791789 10.1308 1.03656C10.7397 1.27222 11.5009 1.69015 12.2223 1.66801C12.711 1.6537 13.197 1.39722 13.6896 1.21624C15.1321 0.691544 16.5463 0.0900287 18.4104 0.372554C20.6507 0.713684 22.2407 1.71619 23.2231 3.26293C21.328 4.47768 19.8298 6.30825 20.0857 9.43425C20.3133 12.2739 21.9524 13.9351 24 14.9142Z" fill="white"/>
</svg>
