<svg width="26" height="30" viewBox="0 0 26 30" fill="none" xmlns="http://www.w3.org/2000/svg">
<path d="M2.81556 0.269043L15.6221 13.0732L18.9268 9.76854C14.4111 7.02875 8.36303 3.35335 5.64302 1.70084L3.8207 0.596859C3.49862 0.400635 3.15372 0.29496 2.81556 0.269043ZM0.860706 1.80208C0.834794 1.94277 0.8125 2.08415 0.8125 2.23595V27.5406C0.8125 27.6467 0.833847 27.7455 0.848655 27.8467L13.877 14.8184L0.860706 1.80208ZM21.0986 11.087L17.3673 14.8184L21.0336 18.4846C22.9761 17.3073 24.3215 16.4897 24.4708 16.3996C25.1311 15.996 25.504 15.3872 25.4928 14.722C25.483 14.0691 25.11 13.4854 24.4757 13.1262C24.3337 13.0448 23.0066 12.2434 21.0986 11.087ZM15.6221 16.5635L2.85414 29.3315C3.1022 29.2884 3.34994 29.2144 3.58689 29.0712C3.9152 28.8713 12.7836 23.4907 18.8618 19.8031L15.6221 16.5635Z" fill="white"/>
</svg>
