<svg width="20" height="20" viewBox="0 0 20 20" fill="none" xmlns="http://www.w3.org/2000/svg">
<path d="M20 10.0002C20 15.5231 15.5228 20.0002 10 20.0002C4.47715 20.0002 0 15.5231 0 10.0002C0 4.4774 4.47715 0.000244141 10 0.000244141C15.5228 0.000244141 20 4.4774 20 10.0002Z" fill="#0373F3"/>
<path fill-rule="evenodd" clip-rule="evenodd" d="M10 5.25024C10.4142 5.25024 10.75 5.58603 10.75 6.00024V9.68958L13.0303 11.9699C13.3232 12.2628 13.3232 12.7377 13.0303 13.0306C12.7374 13.3235 12.2626 13.3235 11.9697 13.0306L9.46967 10.5306C9.32902 10.3899 9.25 10.1992 9.25 10.0002V6.00024C9.25 5.58603 9.58579 5.25024 10 5.25024Z" fill="white"/>
</svg>
