<svg width="12" height="12" viewBox="0 0 12 12" fill="none" xmlns="http://www.w3.org/2000/svg">
<path d="M4.69181 1.54411L5.12448 2.3194C5.51495 3.01906 5.3582 3.93689 4.74322 4.55187C4.74322 4.55187 3.99727 5.29783 5.34976 6.65032C6.70223 8.00279 7.44821 7.25686 7.44821 7.25686C8.0632 6.64188 8.98103 6.48513 9.68068 6.8756L10.456 7.30827C11.5125 7.89788 11.6372 9.37949 10.7086 10.3081C10.1506 10.8661 9.46701 11.3003 8.71136 11.329C7.43926 11.3772 5.27893 11.0552 3.11188 8.8882C0.944833 6.72115 0.622891 4.56082 0.671116 3.28873C0.699763 2.53307 1.13395 1.84949 1.69195 1.29149C2.62058 0.362855 4.1022 0.487625 4.69181 1.54411Z" fill="white"/>
</svg>
