<svg width="28" height="29" viewBox="0 0 28 29" fill="none" xmlns="http://www.w3.org/2000/svg">
<path fill-rule="evenodd" clip-rule="evenodd" d="M8.86475 5.73456C9.17605 4.20637 10.5359 3.12512 12.094 3.12512H15.9059C17.4639 3.12512 18.8238 4.20637 19.1351 5.73456C19.207 6.08734 19.5266 6.34612 19.8589 6.34612H19.878L19.8972 6.34696C21.5345 6.41855 22.7921 6.61948 23.8421 7.3083C24.5036 7.74229 25.0727 8.30065 25.5161 8.9522C26.0678 9.76284 26.3111 10.6932 26.4277 11.8185C26.5416 12.9179 26.5416 14.296 26.5416 16.0413V16.1407C26.5416 17.8861 26.5416 19.2642 26.4277 20.3636C26.3111 21.4888 26.0678 22.4192 25.5161 23.2299C25.0727 23.8814 24.5036 24.4398 23.8421 24.8738C23.0214 25.4122 22.0805 25.6496 20.9393 25.7635C19.822 25.8751 18.4204 25.8751 16.6406 25.8751H11.3592C9.5794 25.8751 8.17786 25.8751 7.06054 25.7635C5.91934 25.6496 4.97845 25.4122 4.15774 24.8738C3.4962 24.4398 2.92715 23.8814 2.48374 23.2299C1.93206 22.4192 1.68873 21.4888 1.57214 20.3636C1.45823 19.2642 1.45824 17.8861 1.45825 16.1407V16.0414C1.45824 14.296 1.45823 12.9179 1.57214 11.8185C1.68873 10.6932 1.93206 9.76284 2.48374 8.9522C2.92715 8.30065 3.4962 7.74229 4.15774 7.3083C5.20772 6.61948 6.46535 6.41855 8.10269 6.34696L8.12179 6.34612H8.14091C8.47328 6.34612 8.79289 6.08734 8.86475 5.73456ZM12.094 4.87512C11.346 4.87512 10.7205 5.39195 10.5795 6.08387C10.3513 7.20448 9.35775 8.08563 8.1623 8.09603C6.58893 8.16593 5.74617 8.35921 5.11767 8.77153C4.64686 9.08039 4.24369 9.47657 3.93049 9.93679C3.60831 10.4102 3.4147 11.0156 3.31283 11.9988C3.20935 12.9975 3.20825 14.285 3.20825 16.091C3.20825 17.8971 3.20935 19.1845 3.31283 20.1832C3.4147 21.1665 3.60831 21.7719 3.93049 22.2453C4.24369 22.7055 4.64686 23.1017 5.11767 23.4105C5.60478 23.7301 6.2281 23.9217 7.23446 24.0222C8.25465 24.1241 9.56884 24.1251 11.4073 24.1251H16.5925C18.431 24.1251 19.7452 24.1241 20.7654 24.0222C21.7717 23.9217 22.3951 23.7301 22.8822 23.4105C23.353 23.1017 23.7562 22.7055 24.0694 22.2453C24.3915 21.7719 24.5851 21.1665 24.687 20.1832C24.7905 19.1845 24.7916 17.8971 24.7916 16.091C24.7916 14.285 24.7905 12.9975 24.687 11.9988C24.5851 11.0156 24.3915 10.4102 24.0694 9.93679C23.7562 9.47657 23.353 9.08039 22.8822 8.77153C22.2537 8.35921 21.4109 8.16593 19.8375 8.09603C18.6421 8.08563 17.6486 7.20448 17.4203 6.08387C17.2794 5.39195 16.6538 4.87512 15.9059 4.87512H12.094ZM13.9999 13.0418C12.5502 13.0418 11.3749 14.217 11.3749 15.6668C11.3749 17.1165 12.5502 18.2918 13.9999 18.2918C15.4497 18.2918 16.6249 17.1165 16.6249 15.6668C16.6249 14.217 15.4497 13.0418 13.9999 13.0418ZM9.62492 15.6668C9.62492 13.2505 11.5837 11.2918 13.9999 11.2918C16.4162 11.2918 18.3749 13.2505 18.3749 15.6668C18.3749 18.083 16.4162 20.0418 13.9999 20.0418C11.5837 20.0418 9.62492 18.083 9.62492 15.6668ZM20.1249 12.1668C20.1249 11.6835 20.5167 11.2918 20.9999 11.2918H22.1666C22.6498 11.2918 23.0416 11.6835 23.0416 12.1668C23.0416 12.65 22.6498 13.0418 22.1666 13.0418H20.9999C20.5167 13.0418 20.1249 12.65 20.1249 12.1668Z" fill="#1C252E"/>
</svg>
