<svg width="28" height="29" viewBox="0 0 28 29" fill="none" xmlns="http://www.w3.org/2000/svg">
<path fill-rule="evenodd" clip-rule="evenodd" d="M8.62698 2.37645C9.04801 1.48888 9.95233 0.875122 11 0.875122H17C18.0477 0.875122 18.952 1.48888 19.373 2.37645C20.3983 2.38391 21.1974 2.43098 21.9107 2.70976C22.763 3.04287 23.5043 3.60912 24.0499 4.34375C24.6003 5.08488 24.8586 6.03481 25.2142 7.34228L26.3272 11.4242L26.7478 12.6862C26.7598 12.701 26.7716 12.7159 26.7834 12.7309C28.1346 14.4616 27.4912 17.0354 26.2042 22.1831C25.3857 25.4571 24.9765 27.0941 23.7558 28.0472C22.5351 29.0003 20.8477 29.0003 17.4729 29.0003H10.5269C7.15214 29.0003 5.46475 29.0003 4.24407 28.0472C3.0234 27.0941 2.61415 25.4571 1.79564 22.1831C0.508719 17.0354 -0.134742 14.4616 1.2165 12.7309C1.22833 12.7158 1.24025 12.7008 1.25228 12.6859L1.67285 11.4242L2.78576 7.3423C3.14137 6.03482 3.39974 5.08488 3.95014 4.34375C4.49571 3.60912 5.23703 3.04287 6.08931 2.70976C6.80262 2.43098 7.60171 2.38391 8.62698 2.37645ZM8.62926 4.62858C7.63645 4.63862 7.23807 4.67653 6.90836 4.80539C6.44944 4.98476 6.05026 5.28966 5.75649 5.68523C5.49233 6.04094 5.33732 6.53792 4.90097 8.13822L4.04663 11.2715C5.57677 11.0003 7.66629 11.0003 10.5269 11.0003H17.4729C20.3337 11.0003 22.4232 11.0003 23.9534 11.2715L23.099 8.13821C22.6627 6.53792 22.5077 6.04094 22.2435 5.68524C21.9497 5.28966 21.5506 4.98476 21.0916 4.80539C20.7619 4.67653 20.3636 4.63862 19.3707 4.62858C18.9487 5.51357 18.0458 6.12512 17 6.12512H11C9.95421 6.12512 9.05126 5.51357 8.62926 4.62858Z" fill="#0154C5"/>
</svg>
