<svg width="24" height="24" viewBox="0 0 24 24" fill="none" xmlns="http://www.w3.org/2000/svg">
<path d="M6.25993 21.3886H6C5.05719 21.3886 4.58579 21.3886 4.29289 21.0957C4 20.8028 4 20.3314 4 19.3886V18.2767C4 17.7582 4 17.4989 4.13318 17.2674C4.26636 17.0359 4.46727 16.919 4.8691 16.6853C7.51457 15.1467 11.2715 14.2806 13.7791 15.7761C13.9475 15.8766 14.0991 15.9979 14.2285 16.1434C14.7866 16.7702 14.746 17.7164 14.1028 18.2777C13.9669 18.3963 13.8222 18.4862 13.6764 18.5174C13.7962 18.5036 13.911 18.4876 14.0206 18.4702C14.932 18.3248 15.697 17.8378 16.3974 17.3087L18.2046 15.9435C18.8417 15.4622 19.7873 15.4621 20.4245 15.9433C20.9982 16.3764 21.1736 17.0897 20.8109 17.671C20.388 18.3489 19.7921 19.2162 19.2199 19.7462C18.6469 20.2769 17.7939 20.7506 17.0975 21.0868C16.326 21.4591 15.4738 21.6737 14.6069 21.814C12.8488 22.0986 11.0166 22.0552 9.27633 21.6966C8.29253 21.4939 7.27079 21.3886 6.25993 21.3886Z" fill="#0373F3"/>
<path d="M6.58579 2.58603C6.21901 2.95281 6.08188 3.45955 6.03061 4.25004C7.24895 4.23379 8.23355 3.2492 8.2498 2.03086C7.4593 2.08213 6.95256 2.21926 6.58579 2.58603Z" fill="#0373F3"/>
<path d="M17.4142 2.58603C17.0474 2.21925 16.5407 2.08212 15.7502 2.03085C15.7664 3.2492 16.751 4.2338 17.9694 4.25004C17.9181 3.45955 17.781 2.95281 17.4142 2.58603Z" fill="#0373F3"/>
<path d="M17.4142 9.41446C17.0474 9.78123 16.5407 9.91836 15.7502 9.96963C15.7665 8.75129 16.751 7.76669 17.9694 7.75045C17.9181 8.54094 17.781 9.04768 17.4142 9.41446Z" fill="#0373F3"/>
<path d="M6.58579 9.41446C6.95256 9.78123 7.4593 9.91836 8.2498 9.96963C8.23355 8.75129 7.24895 7.7667 6.03061 7.75045C6.08188 8.54094 6.21901 9.04768 6.58579 9.41446Z" fill="#0373F3"/>
<path fill-rule="evenodd" clip-rule="evenodd" d="M6 5.75024C8.07107 5.75024 9.75 4.07131 9.75 2.00024H14.25C14.25 4.07131 15.9289 5.75024 18 5.75024V6.25024C15.9289 6.25024 14.25 7.92918 14.25 10.0002H9.75C9.75 7.92918 8.07107 6.25024 6 6.25024V5.75024ZM12 7.00024C12.5523 7.00024 13 6.55253 13 6.00024C13 5.44796 12.5523 5.00024 12 5.00024C11.4477 5.00024 11 5.44796 11 6.00024C11 6.55253 11.4477 7.00024 12 7.00024Z" fill="#0373F3"/>
</svg>
