<svg width="18" height="12" viewBox="0 0 18 12" fill="none" xmlns="http://www.w3.org/2000/svg">
<path d="M16.8749 5.38148H1.1249C0.787402 5.38148 0.478027 5.66273 0.478027 6.02836C0.478027 6.36586 0.759277 6.67524 1.1249 6.67524H16.8749C17.2124 6.67524 17.5218 6.39398 17.5218 6.02836C17.5218 5.66273 17.2124 5.38148 16.8749 5.38148Z" fill="white"/>
<path d="M16.8749 10.1627H1.1249C0.787402 10.1627 0.478027 10.444 0.478027 10.8096C0.478027 11.1752 0.759277 11.4565 1.1249 11.4565H16.8749C17.2124 11.4565 17.5218 11.1752 17.5218 10.8096C17.5218 10.444 17.2124 10.1627 16.8749 10.1627Z" fill="white"/>
<path d="M1.1249 1.83774H16.8749C17.2124 1.83774 17.5218 1.55649 17.5218 1.19087C17.5218 0.825241 17.2405 0.543991 16.8749 0.543991H1.1249C0.787402 0.543991 0.478027 0.825241 0.478027 1.19087C0.478027 1.55649 0.787402 1.83774 1.1249 1.83774Z" fill="white"/>
</svg>
