<svg width="20" height="20" viewBox="0 0 20 20" fill="none" xmlns="http://www.w3.org/2000/svg">
<path fill-rule="evenodd" clip-rule="evenodd" d="M20 10.0002C20 15.5231 15.5228 20.0002 10 20.0002C4.47715 20.0002 0 15.5231 0 10.0002C0 4.4774 4.47715 0.000244141 10 0.000244141C15.5228 0.000244141 20 4.4774 20 10.0002ZM3.46056 9.08358C3.83331 5.80012 6.62404 3.25024 10.0096 3.25024C12.148 3.25024 14.0489 4.26817 15.2521 5.8427C15.5036 6.17183 15.4406 6.64251 15.1115 6.89401C14.7824 7.1455 14.3117 7.08257 14.0602 6.75345C13.1289 5.53469 11.6613 4.75024 10.0096 4.75024C7.45213 4.75024 5.33639 6.63243 4.9733 9.08358H5.33652C5.63996 9.08358 5.9135 9.26642 6.02953 9.5468C6.14556 9.82718 6.0812 10.1499 5.86649 10.3643L4.69823 11.5309C4.40542 11.8233 3.9311 11.8233 3.63829 11.5309L2.47003 10.3643C2.25532 10.1499 2.19097 9.82718 2.30699 9.5468C2.42302 9.26642 2.69656 9.08358 3 9.08358H3.46056ZM16.3617 8.46955C16.0689 8.17714 15.5946 8.17714 15.3018 8.46955L14.1335 9.63622C13.9188 9.85064 13.8545 10.1733 13.9705 10.4537C14.0865 10.7341 14.3601 10.9169 14.6635 10.9169H15.0267C14.6636 13.3681 12.5479 15.2502 9.99045 15.2502C8.34645 15.2502 6.88484 14.4731 5.9529 13.2641C5.70002 12.936 5.22908 12.8751 4.90101 13.1279C4.57295 13.3808 4.512 13.8517 4.76487 14.1798C5.96886 15.7418 7.86205 16.7502 9.99045 16.7502C13.376 16.7502 16.1667 14.2004 16.5395 10.9169H17C17.3035 10.9169 17.577 10.7341 17.693 10.4537C17.8091 10.1733 17.7447 9.85064 17.53 9.63622L16.3617 8.46955Z" fill="#0373F3"/>
</svg>
