<svg width="26" height="27" viewBox="0 0 26 27" fill="none" xmlns="http://www.w3.org/2000/svg">
<path fill-rule="evenodd" clip-rule="evenodd" d="M12.4166 2.70846C6.77868 2.70846 2.20825 7.27888 2.20825 12.9168C2.20825 18.5547 6.77868 23.1251 12.4166 23.1251C18.0545 23.1251 22.6249 18.5547 22.6249 12.9168C22.6249 7.27888 18.0545 2.70846 12.4166 2.70846ZM0.458252 12.9168C0.458252 6.31239 5.81218 0.958458 12.4166 0.958458C19.021 0.958458 24.3749 6.31239 24.3749 12.9168C24.3749 15.9041 23.2796 18.6355 21.4686 20.7314L25.2853 24.5481C25.627 24.8898 25.627 25.4438 25.2853 25.7855C24.9436 26.1272 24.3896 26.1272 24.0479 25.7855L20.2312 21.9688C18.1353 23.7798 15.4038 24.8751 12.4166 24.8751C5.81218 24.8751 0.458252 19.5212 0.458252 12.9168Z" fill="white"/>
</svg>
