<svg width="12" height="14" viewBox="0 0 12 14" fill="none" xmlns="http://www.w3.org/2000/svg">
<path fill-rule="evenodd" clip-rule="evenodd" d="M6.03448 0.333334H5.96569C4.84554 0.333324 3.95829 0.333316 3.26392 0.428301C2.5493 0.526055 1.97089 0.732019 1.51474 1.19612C1.0586 1.66022 0.856166 2.24872 0.760088 2.9758C0.666731 3.68229 0.666739 4.585 0.666748 5.7247V8.2753C0.666739 9.41499 0.666731 10.3177 0.760088 11.0242C0.856166 11.7513 1.0586 12.3398 1.51474 12.8039C1.97089 13.268 2.5493 13.4739 3.26392 13.5717C3.95829 13.6667 4.84552 13.6667 5.96567 13.6667H6.03447C7.15461 13.6667 8.04187 13.6667 8.73625 13.5717C9.45087 13.4739 10.0293 13.268 10.4854 12.8039C10.9416 12.3398 11.144 11.7513 11.2401 11.0242C11.3334 10.3177 11.3334 9.41501 11.3334 8.27532V5.72471C11.3334 4.58502 11.3334 3.68229 11.2401 2.9758C11.144 2.24872 10.9416 1.66022 10.4854 1.19612C10.0293 0.732019 9.45087 0.526055 8.73625 0.428301C8.04187 0.333316 7.15463 0.333324 6.03448 0.333334ZM3.71437 11.3411C3.71437 11.0842 3.91904 10.876 4.17151 10.876H7.82865C8.08113 10.876 8.2858 11.0842 8.2858 11.3411C8.2858 11.598 8.08113 11.8062 7.82865 11.8062H4.17151C3.91904 11.8062 3.71437 11.598 3.71437 11.3411Z" fill="white"/>
</svg>
