<svg width="14" height="14" viewBox="0 0 14 14" fill="none" xmlns="http://www.w3.org/2000/svg">
<path fill-rule="evenodd" clip-rule="evenodd" d="M5.39485 1.13351C5.2325 1.27187 5.15132 1.34105 5.06463 1.39916C4.86589 1.53236 4.6427 1.62481 4.40799 1.67115C4.30559 1.69136 4.19927 1.69985 3.98664 1.71682C3.45238 1.75945 3.18525 1.78077 2.96239 1.85949C2.44692 2.04155 2.04147 2.44701 1.8594 2.96247C1.78069 3.18534 1.75937 3.45246 1.71674 3.98672C1.69977 4.19936 1.69128 4.30567 1.67107 4.40807C1.62473 4.64278 1.53228 4.86597 1.39908 5.06471C1.34097 5.1514 1.27179 5.23258 1.13343 5.39494C0.785808 5.80285 0.611988 6.00682 0.510062 6.22007C0.274315 6.7133 0.274315 7.2867 0.510062 7.77993C0.611989 7.99318 0.785804 8.19714 1.13343 8.60506C1.27178 8.7674 1.34097 8.8486 1.39908 8.93529C1.53228 9.13403 1.62473 9.35722 1.67107 9.59193C1.69128 9.69433 1.69977 9.80064 1.71674 10.0133C1.75937 10.5475 1.78069 10.8147 1.8594 11.0375C2.04147 11.553 2.44692 11.9584 2.96239 12.1405C3.18525 12.2192 3.45238 12.2405 3.98664 12.2832C4.19927 12.3002 4.30559 12.3086 4.40799 12.3289C4.6427 12.3752 4.86589 12.4676 5.06463 12.6008C5.15132 12.659 5.2325 12.7281 5.39485 12.8665C5.80278 13.2141 6.00674 13.3879 6.21999 13.4899C6.71322 13.7256 7.28662 13.7256 7.77985 13.4899C7.9931 13.3879 8.19706 13.2141 8.60498 12.8665C8.76734 12.7281 8.84851 12.659 8.93521 12.6008C9.13395 12.4676 9.35714 12.3752 9.59185 12.3289C9.69424 12.3086 9.80056 12.3002 10.0132 12.2832C10.5475 12.2405 10.8146 12.2192 11.0374 12.1405C11.5529 11.9584 11.9584 11.553 12.1404 11.0375C12.2192 10.8147 12.2405 10.5475 12.2831 10.0133C12.3001 9.80064 12.3086 9.69433 12.3288 9.59193C12.3751 9.35722 12.4676 9.13403 12.6008 8.93529C12.6589 8.8486 12.728 8.76742 12.8664 8.60506C13.214 8.19714 13.3878 7.99318 13.4898 7.77993C13.7255 7.2867 13.7255 6.7133 13.4898 6.22007C13.3878 6.00682 13.214 5.80286 12.8664 5.39494C12.728 5.23258 12.6589 5.1514 12.6008 5.06471C12.4676 4.86597 12.3751 4.64278 12.3288 4.40807C12.3086 4.30567 12.3001 4.19936 12.2831 3.98672C12.2405 3.45246 12.2192 3.18533 12.1404 2.96247C11.9584 2.44701 11.5529 2.04155 11.0374 1.85949C10.8146 1.78077 10.5475 1.75945 10.0132 1.71682C9.80056 1.69985 9.69425 1.69136 9.59185 1.67115C9.35714 1.62481 9.13395 1.53236 8.93521 1.39916C8.84851 1.34105 8.76734 1.27187 8.60498 1.13351C8.19706 0.785885 7.9931 0.61207 7.77985 0.510144C7.28662 0.274397 6.71322 0.274397 6.21999 0.510144C6.00674 0.61207 5.80277 0.785889 5.39485 1.13351ZM9.55386 4.44639C9.76575 4.65828 9.76575 5.00182 9.55386 5.21371L5.21327 9.5543C5.00139 9.76618 4.65785 9.76618 4.44596 9.5543C4.23407 9.34241 4.23407 8.99887 4.44596 8.78698L8.78655 4.44639C8.99843 4.23451 9.34197 4.23451 9.55386 4.44639ZM9.53192 8.80892C9.53192 9.20846 9.20803 9.53235 8.80849 9.53235C8.40895 9.53235 8.08506 9.20846 8.08506 8.80892C8.08506 8.40938 8.40895 8.08549 8.80849 8.08549C9.20803 8.08549 9.53192 8.40938 9.53192 8.80892ZM5.19133 5.9152C5.59087 5.9152 5.91476 5.59131 5.91476 5.19177C5.91476 4.79223 5.59087 4.46834 5.19133 4.46834C4.79179 4.46834 4.4679 4.79223 4.4679 5.19177C4.4679 5.59131 4.79179 5.9152 5.19133 5.9152Z" fill="white"/>
</svg>
