<svg width="20" height="16" viewBox="0 0 20 16" fill="none" xmlns="http://www.w3.org/2000/svg">
<path fill-rule="evenodd" clip-rule="evenodd" d="M0 2.00024C0 0.895675 0.89543 0.000244141 2 0.000244141H13C14.1046 0.000244141 15 0.895675 15 2.00024V3.00024H16.5194C17.1269 3.00024 17.7016 3.27642 18.0811 3.75085L19.5617 5.60163C19.8454 5.95626 20 6.39688 20 6.85103V11.0002C20 12.1048 19.1046 13.0002 18 13.0002H17C17 14.6571 15.6569 16.0002 14 16.0002C12.3431 16.0002 11 14.6571 11 13.0002H8C8 14.6571 6.65685 16.0002 5 16.0002C3.34315 16.0002 2 14.6571 2 13.0002C0.895432 13.0002 0 12.1048 0 11.0002V2.00024ZM15 9.00024V5.00024H16.5194L18 6.85103V9.00024H15ZM6 13.0002C6 13.5525 5.55228 14.0002 5 14.0002C4.44772 14.0002 4 13.5525 4 13.0002C4 12.448 4.44772 12.0002 5 12.0002C5.55228 12.0002 6 12.448 6 13.0002ZM14 14.0002C14.5523 14.0002 15 13.5525 15 13.0002C15 12.448 14.5523 12.0002 14 12.0002C13.4477 12.0002 13 12.448 13 13.0002C13 13.5525 13.4477 14.0002 14 14.0002Z" fill="#0373F3"/>
</svg>
