<svg width="30" height="31" viewBox="0 0 30 31" fill="none" xmlns="http://www.w3.org/2000/svg">
<path fill-rule="evenodd" clip-rule="evenodd" d="M30 15.5001C30 23.7844 23.2843 30.5001 15 30.5001C6.71573 30.5001 0 23.7844 0 15.5001C0 7.21585 6.71573 0.500122 15 0.500122C23.2843 0.500122 30 7.21585 30 15.5001ZM19.5 11.0001C19.5 13.4854 17.4853 15.5001 15 15.5001C12.5147 15.5001 10.5 13.4854 10.5 11.0001C10.5 8.51484 12.5147 6.50012 15 6.50012C17.4853 6.50012 19.5 8.51484 19.5 11.0001ZM15 28.2501C17.6761 28.2501 20.1596 27.4257 22.2104 26.0169C23.1162 25.3947 23.5033 24.2095 22.9766 23.245C21.8849 21.2455 19.6353 20.0001 14.9999 20.0001C10.3645 20.0001 8.11495 21.2455 7.02321 23.2449C6.49657 24.2094 6.88365 25.3946 7.78943 26.0168C9.84028 27.4256 12.3238 28.2501 15 28.2501Z" fill="#0154C5"/>
</svg>
