<svg width="16" height="17" viewBox="0 0 16 17" fill="none" xmlns="http://www.w3.org/2000/svg">
<g clip-path="url(#clip0_5974_959)">
<path d="M-12 8.55029C-12 11.1767 -11.4827 13.7775 -10.4776 16.204C-9.4725 18.6305 -7.99931 20.8353 -6.14213 22.6924C-4.28496 24.5496 -2.08018 26.0228 0.346332 27.0279C2.77284 28.033 5.37356 28.5503 8 28.5503C10.6264 28.5503 13.2272 28.033 15.6537 27.0279C18.0802 26.0228 20.285 24.5496 22.1421 22.6924C23.9993 20.8353 25.4725 18.6305 26.4776 16.204C27.4827 13.7775 28 11.1767 28 8.55029C28 5.92386 27.4827 3.32314 26.4776 0.896626C25.4725 -1.52989 23.9993 -3.73467 22.1421 -5.59184C20.285 -7.44901 18.0802 -8.9222 15.6537 -9.9273C13.2272 -10.9324 10.6264 -11.4497 8 -11.4497C5.37356 -11.4497 2.77284 -10.9324 0.346332 -9.9273C-2.08018 -8.9222 -4.28496 -7.44901 -6.14213 -5.59184C-7.99931 -3.73467 -9.4725 -1.52989 -10.4776 0.896626C-11.4827 3.32314 -12 5.92386 -12 8.55029Z" fill="#FFF1DC"/>
<path d="M13.564 6.94885C13.4626 6.53 13.0785 5.83358 12.6806 5.26052C12.5055 5.00881 12.1175 5.07049 12.0259 5.36399C11.8827 5.81766 11.6548 6.33898 11.2589 6.80758C11.1863 6.89314 11.045 6.84936 11.038 6.73694C10.9624 5.5759 10.4122 2.57431 6.53214 2.15247C6.26452 2.12362 6.05559 2.38329 6.14314 2.63798C6.43564 3.49359 6.67043 5.13814 5.33031 6.14597C5.27559 6.18676 5.19998 6.17283 5.1572 6.1201C4.7105 5.55103 4.15336 5.20182 3.39823 5.06054C3.13458 5.01179 2.91272 5.25156 2.97341 5.51322C3.09081 6.01763 3.13956 6.87821 2.65903 8.0502C1.85217 10.0151 0.921943 14.7608 8.32494 14.7608C15.7279 14.7608 13.7063 7.53683 13.564 6.94885ZM4.92141 12.2516C4.86495 12.3046 4.79861 12.3459 4.72617 12.3731C4.65373 12.4004 4.57662 12.4131 4.49927 12.4105C4.42192 12.4079 4.34583 12.3901 4.27538 12.358C4.20492 12.326 4.14148 12.2804 4.08869 12.2238C3.10275 11.1692 3.53155 9.20228 3.58328 8.98142C3.6579 8.66504 3.97527 8.46805 4.29165 8.54366C4.36685 8.56134 4.43784 8.59366 4.50054 8.63878C4.56325 8.68391 4.61645 8.74094 4.65711 8.80663C4.69776 8.87233 4.72507 8.94539 4.73747 9.02164C4.74988 9.09789 4.74713 9.17584 4.7294 9.25103C4.63588 9.65297 4.4757 10.9125 4.94827 11.4189C5.17113 11.6567 5.15919 12.0298 4.92141 12.2516Z" fill="#FC7032"/>
<path d="M13.4387 6.58671C13.2686 6.18776 12.9781 5.68932 12.6806 5.26052C12.5055 5.00881 12.1175 5.07049 12.0259 5.36399C11.8827 5.81766 11.6548 6.33898 11.2589 6.80758C11.1863 6.89314 11.045 6.84936 11.038 6.73694C10.9624 5.5759 10.4122 2.57431 6.53214 2.15247C6.26452 2.12362 6.05559 2.38329 6.14314 2.63798C6.43564 3.49359 6.67043 5.13814 5.33031 6.14597C5.27559 6.18676 5.19998 6.17283 5.1572 6.1201C4.71049 5.55103 4.15335 5.20182 3.39823 5.06054C3.13458 5.01179 2.91272 5.25156 2.97341 5.51322C3.09081 6.01763 3.13956 6.87821 2.65902 8.0502C1.95464 9.76539 1.15773 13.5977 5.88745 14.5459C10.0033 14.1389 13.2447 10.7613 13.4387 6.58671ZM4.92141 12.2516C4.86495 12.3046 4.7986 12.3459 4.72617 12.3731C4.65373 12.4004 4.57662 12.4131 4.49927 12.4105C4.42191 12.4079 4.34583 12.3901 4.27537 12.358C4.20492 12.326 4.14148 12.2804 4.08869 12.2238C3.10275 11.1692 3.53154 9.20228 3.58328 8.98142C3.6579 8.66504 3.97527 8.46805 4.29164 8.54366C4.36685 8.56134 4.43783 8.59366 4.50054 8.63878C4.56325 8.68391 4.61645 8.74094 4.6571 8.80663C4.69776 8.87233 4.72507 8.94539 4.73747 9.02164C4.74988 9.09789 4.74713 9.17584 4.7294 9.25103C4.63588 9.65297 4.4757 10.9125 4.94827 11.4189C5.17113 11.6567 5.15919 12.0298 4.92141 12.2516Z" fill="#FF7C33"/>
<path d="M10.8269 5.52217C10.4419 4.17807 9.39324 2.46387 6.53094 2.15247C6.26331 2.12362 6.05438 2.38329 6.14193 2.63798C6.43443 3.49359 6.66923 5.13814 5.32911 6.14597C5.27439 6.18676 5.19877 6.17283 5.15599 6.1201C4.70929 5.55103 4.15215 5.20182 3.39702 5.06054C3.13338 5.01179 2.91151 5.25156 2.9722 5.51322C3.0896 6.01763 3.13835 6.87821 2.65782 8.0502C2.30562 8.90779 1.92956 10.2957 2.23499 11.588C2.4081 11.599 2.58121 11.6059 2.75731 11.6059C3.06672 11.6059 3.37116 11.588 3.67161 11.5552C3.24878 10.4956 3.54029 9.16249 3.58207 8.98241C3.65669 8.66604 3.97406 8.46905 4.29044 8.54466C4.36564 8.56233 4.43663 8.59466 4.49933 8.63978C4.56204 8.6849 4.61524 8.74194 4.6559 8.80763C4.69655 8.87332 4.72386 8.94638 4.73626 9.02263C4.74867 9.09889 4.74592 9.17684 4.72819 9.25203C4.63964 9.63307 4.4924 10.7842 4.87941 11.3333C7.74769 10.5862 10.0151 8.3616 10.8269 5.52217Z" fill="#FF8D4D"/>
<path d="M6.531 2.15247C6.26337 2.12362 6.05444 2.38329 6.14199 2.63798C6.43449 3.49359 6.66929 5.13814 5.32916 6.14597C5.27445 6.18676 5.19883 6.17283 5.15605 6.1201C4.70935 5.55103 4.15221 5.20182 3.39708 5.06054C3.13343 5.01179 2.91157 5.25156 2.97226 5.51322C3.08966 6.01763 3.13841 6.87821 2.65788 8.0502C2.60798 8.17314 2.56088 8.29721 2.5166 8.42229C5.42766 7.75869 7.76367 5.58485 8.65211 2.76632C8.089 2.46686 7.39257 2.24599 6.531 2.15247Z" fill="#FFA56A"/>
</g>
<defs>
<clipPath id="clip0_5974_959">
<rect y="0.550293" width="16" height="16" rx="8" fill="white"/>
</clipPath>
</defs>
</svg>
