<svg width="48" height="49" viewBox="0 0 48 49" fill="none" xmlns="http://www.w3.org/2000/svg">
<path d="M2.68555 24.4274C2.68555 27.2025 3.23214 29.9504 4.29412 32.5143C5.35611 35.0781 6.91268 37.4077 8.87497 39.37C10.8373 41.3323 13.1668 42.8889 15.7307 43.9508C18.2945 45.0128 21.0425 45.5594 23.8175 45.5594C26.5926 45.5594 29.3406 45.0128 31.9044 43.9508C34.4683 42.8889 36.7978 41.3323 38.7601 39.37C40.7224 37.4077 42.279 35.0781 43.341 32.5143C44.403 29.9504 44.9495 27.2025 44.9495 24.4274C44.9495 18.8229 42.7231 13.4478 38.7601 9.48483C34.7971 5.52181 29.4221 3.29541 23.8175 3.29541C18.213 3.29541 12.838 5.52181 8.87497 9.48483C4.91195 13.4478 2.68555 18.8229 2.68555 24.4274Z" fill="#E6F1FF"/>
<path d="M34.5193 12.1924H19.0177C17.1097 12.1924 15.5641 13.738 15.5641 15.646V18.9796C15.5641 19.3828 15.3577 19.7596 15.0193 19.978L10.1185 23.1244C9.79941 23.3296 9.53688 23.6116 9.35491 23.9445C9.17295 24.2774 9.07736 24.6506 9.0769 25.03V31.9084C9.0769 33.1588 10.0921 34.174 11.3425 34.174H12.0553C12.0553 34.1644 12.0529 34.1548 12.0529 34.1428C12.0529 31.7668 13.9777 29.842 16.3537 29.842C18.7297 29.842 20.6545 31.7668 20.6545 34.1428C20.6545 34.1524 20.6521 34.162 20.6521 34.174H27.0121C27.0121 34.1644 27.0097 34.1548 27.0097 34.1428C27.0097 31.7668 28.9345 29.842 31.3105 29.842C33.6865 29.842 35.6113 31.7668 35.6113 34.1428V34.1572C36.9385 34.0132 37.9705 32.89 37.9705 31.5244V15.646C37.9729 13.738 36.4249 12.1924 34.5193 12.1924ZM20.4505 26.6212C20.4505 27.5956 19.6585 28.3876 18.6841 28.3876H14.7409C14.3571 28.3876 13.989 28.2351 13.7176 27.9637C13.4462 27.6923 13.2937 27.3242 13.2937 26.9404C13.2937 26.5566 13.4462 26.1885 13.7176 25.9171C13.989 25.6457 14.3571 25.4932 14.7409 25.4932H17.5561V23.6836C17.5561 23.2998 17.7086 22.9317 17.98 22.6603C18.2514 22.3889 18.6195 22.2364 19.0033 22.2364C19.3871 22.2364 19.7552 22.3889 20.0266 22.6603C20.298 22.9317 20.4505 23.2998 20.4505 23.6836V26.6212Z" fill="#025FCA"/>
<path d="M13.3704 34.1451C13.3704 34.9363 13.6847 35.695 14.2441 36.2545C14.8036 36.814 15.5624 37.1283 16.3536 37.1283C17.1448 37.1283 17.9035 36.814 18.463 36.2545C19.0225 35.695 19.3368 34.9363 19.3368 34.1451C19.3368 33.3539 19.0225 32.5951 18.463 32.0356C17.9035 31.4762 17.1448 31.1619 16.3536 31.1619C15.5624 31.1619 14.8036 31.4762 14.2441 32.0356C13.6847 32.5951 13.3704 33.3539 13.3704 34.1451Z" fill="#0373F3"/>
<path d="M28.3201 34.1451C28.3201 34.9363 28.6344 35.695 29.1938 36.2545C29.7533 36.814 30.5121 37.1283 31.3033 37.1283C32.0945 37.1283 32.8533 36.814 33.4127 36.2545C33.9722 35.695 34.2865 34.9363 34.2865 34.1451C34.2865 33.3539 33.9722 32.5951 33.4127 32.0356C32.8533 31.4762 32.0945 31.1619 31.3033 31.1619C30.5121 31.1619 29.7533 31.4762 29.1938 32.0356C28.6344 32.5951 28.3201 33.3539 28.3201 34.1451Z" fill="#0373F3"/>
<path d="M16.3536 31.1619C14.9112 31.1619 13.7088 32.1843 13.4304 33.5451C15.2544 34.1408 17.1612 34.4437 19.08 34.4427C19.1616 34.4427 19.2408 34.4379 19.3224 34.4355C19.332 34.3395 19.3368 34.2411 19.3368 34.1427C19.3392 32.4963 18.0024 31.1619 16.3536 31.1619Z" fill="#0373F3"/>
<path d="M34.5193 12.1924H19.0177C17.1097 12.1924 15.5641 13.738 15.5641 15.646V18.9796C15.5641 19.3828 15.3577 19.7596 15.0193 19.978L10.1185 23.1244C9.79941 23.3296 9.53688 23.6116 9.35491 23.9445C9.17295 24.2774 9.07736 24.6506 9.0769 25.03V31.4452C10.0537 32.0884 11.0929 32.6404 12.1897 33.0868C12.6601 31.222 14.3449 29.842 16.3537 29.842C18.7297 29.842 20.6545 31.7668 20.6545 34.1428C20.6545 34.1524 20.6521 34.162 20.6521 34.174H22.1785C24.0145 33.8596 25.7545 33.2716 27.3577 32.4508C27.6798 31.7008 28.2089 31.058 28.883 30.5977C29.5571 30.1374 30.3483 29.8786 31.1641 29.8516C34.9201 26.5156 37.2913 21.6532 37.2913 16.2316C37.2913 15.2356 37.2073 14.2588 37.0537 13.3084C36.4249 12.6244 35.5225 12.1924 34.5193 12.1924ZM20.4505 26.6212C20.4505 27.5956 19.6585 28.3876 18.6841 28.3876H14.7409C14.3571 28.3876 13.989 28.2351 13.7176 27.9637C13.4462 27.6923 13.2937 27.3242 13.2937 26.9404C13.2937 26.5566 13.4462 26.1885 13.7176 25.9171C13.989 25.6457 14.3571 25.4932 14.7409 25.4932H17.5561V23.6836C17.5561 23.2998 17.7086 22.9317 17.98 22.6603C18.2514 22.3889 18.6195 22.2364 19.0033 22.2364C19.3871 22.2364 19.7552 22.3889 20.0266 22.6603C20.298 22.9317 20.4505 23.2998 20.4505 23.6836V26.6212Z" fill="#0373F3"/>
<path d="M19.0177 12.1924C17.1097 12.1924 15.5641 13.738 15.5641 15.646V18.9796C15.5641 19.3828 15.3577 19.7596 15.0193 19.978L10.1185 23.1244C9.79941 23.3296 9.53688 23.6116 9.35491 23.9445C9.17295 24.2774 9.07736 24.6506 9.0769 25.03V27.2692C10.5874 27.7018 12.1476 27.9366 13.7185 27.9676C13.5157 27.7653 13.3774 27.5074 13.3212 27.2265C13.2651 26.9456 13.2935 26.6544 13.403 26.3897C13.5125 26.125 13.6981 25.8987 13.9362 25.7395C14.1744 25.5804 14.4544 25.4955 14.7409 25.4956H17.5561V23.686C17.5561 23.3022 17.7086 22.9341 17.98 22.6627C18.2514 22.3913 18.6195 22.2388 19.0033 22.2388C19.3871 22.2388 19.7552 22.3913 20.0266 22.6627C20.298 22.9341 20.4505 23.3022 20.4505 23.686V26.6236C20.4505 26.698 20.4433 26.77 20.4361 26.8444C26.6401 24.5404 31.2433 18.9556 32.1457 12.1948H19.0177V12.1924Z" fill="#3592FD"/>
<path d="M15.5639 15.6459V18.9795C15.5639 19.3827 15.3575 19.7595 15.0191 19.9779L13.1711 21.1635C18.4391 20.0907 22.8791 16.7427 25.4231 12.1899H19.0175C17.1095 12.1923 15.5639 13.7379 15.5639 15.6459Z" fill="#68AEFD"/>
</svg>
