<svg width="48" height="49" viewBox="0 0 48 49" fill="none" xmlns="http://www.w3.org/2000/svg">
<path opacity="0.5" d="M6 26.874C6 24.668 6 23.565 6.78528 22.9216C7.06409 22.6932 7.40294 22.5104 7.78059 22.3847C8.84425 22.0305 10.2422 22.3793 13.038 23.0769C15.1725 23.6094 16.2398 23.8757 17.3182 23.8482C17.7143 23.838 18.108 23.7986 18.4937 23.7303C19.5438 23.5445 20.4799 23.0774 22.3519 22.1432L25.1167 20.7635C27.5148 19.5668 28.7138 18.9685 30.0901 18.8305C31.4665 18.6925 32.8336 19.0337 35.5678 19.7159L37.8974 20.2971C39.8774 20.7912 40.8675 21.0382 41.4337 21.6263C42 22.2144 42 22.9955 42 24.5579V36.7266C42 38.9326 42 40.0356 41.2147 40.6789C40.9359 40.9073 40.5971 41.0902 40.2194 41.2159C39.1558 41.5701 37.7578 41.2213 34.962 40.5237C32.8275 39.9911 31.7602 39.7249 30.6818 39.7524C30.2857 39.7625 29.892 39.802 29.5063 39.8703C28.4562 40.0561 27.5201 40.5232 25.6481 41.4574L22.8833 42.8371C20.4852 44.0338 19.2862 44.6321 17.9099 44.7701C16.5335 44.908 15.1664 44.5669 12.4322 43.8847L10.1026 43.3035C8.12258 42.8094 7.13255 42.5624 6.56627 41.9743C6 41.3862 6 40.605 6 39.0427V26.874Z" fill="#025FCA"/>
<path fill-rule="evenodd" clip-rule="evenodd" d="M24 4.80029C17.3726 4.80029 12 9.90452 12 16.2009C12 22.4479 15.83 29.7377 21.8056 32.3445C23.1986 32.9522 24.8014 32.9522 26.1944 32.3445C32.17 29.7377 36 22.4479 36 16.2009C36 9.90452 30.6274 4.80029 24 4.80029ZM24 20.8003C26.2091 20.8003 28 19.0094 28 16.8003C28 14.5912 26.2091 12.8003 24 12.8003C21.7909 12.8003 20 14.5912 20 16.8003C20 19.0094 21.7909 20.8003 24 20.8003Z" fill="#025FCA"/>
</svg>
