<svg width="32" height="33" viewBox="0 0 32 33" fill="none" xmlns="http://www.w3.org/2000/svg">
<path fill-rule="evenodd" clip-rule="evenodd" d="M6.66675 4.80029H25.3334L11.7542 18.3795C11.5413 17.8255 11.2 17.3499 10.7168 16.9304C10.413 16.6667 9.9887 16.4278 9.14014 15.9501L5.2561 13.7637C3.99138 13.0517 3.35902 12.6958 3.01288 12.1222C2.66675 11.5486 2.66675 10.8567 2.66675 9.47293V8.55317C2.66675 6.78405 2.66675 5.89949 3.25253 5.34989C3.83832 4.80029 4.78113 4.80029 6.66675 4.80029Z" fill="#025FCA"/>
<path opacity="0.5" d="M29.3331 9.47293V8.55317C29.3331 6.78405 29.3331 5.89949 28.7473 5.34989C28.1615 4.80029 27.2187 4.80029 25.3331 4.80029L11.7539 18.3795C11.8197 18.5508 11.8733 18.7296 11.915 18.9165C11.9997 19.2966 11.9997 19.7414 11.9997 20.6309L11.9997 24.1902C11.9997 25.4029 11.9997 26.0093 12.3356 26.482C12.6715 26.9547 13.2681 27.1879 14.4613 27.6544C16.9661 28.6336 18.2185 29.1232 19.1091 28.5661C19.9997 28.0091 19.9997 26.7361 19.9997 24.1902V20.6309C19.9997 19.7414 19.9997 19.2966 20.0845 18.9165C20.261 18.125 20.6504 17.4796 21.2831 16.9304C21.5868 16.6667 22.0111 16.4278 22.8597 15.9501L26.7437 13.7637C28.0084 13.0517 28.6408 12.6958 28.9869 12.1222C29.3331 11.5486 29.3331 10.8567 29.3331 9.47293Z" fill="#025FCA"/>
</svg>
