<svg width="48" height="49" viewBox="0 0 48 49" fill="none" xmlns="http://www.w3.org/2000/svg">
<path d="M2.85596 24.4274C2.85596 27.2025 3.40255 29.9504 4.46453 32.5143C5.52652 35.0781 7.08309 37.4077 9.04538 39.37C11.0077 41.3323 13.3372 42.8889 15.9011 43.9508C18.4649 45.0128 21.2129 45.5594 23.988 45.5594C26.7631 45.5594 29.511 45.0128 32.0748 43.9508C34.6387 42.8889 36.9683 41.3323 38.9305 39.37C40.8928 37.4077 42.4494 35.0781 43.5114 32.5143C44.5734 29.9504 45.12 27.2025 45.12 24.4274C45.12 18.8229 42.8936 13.4478 38.9305 9.48483C34.9675 5.52181 29.5925 3.29541 23.988 3.29541C18.3834 3.29541 13.0084 5.52181 9.04538 9.48483C5.08236 13.4478 2.85596 18.8229 2.85596 24.4274Z" fill="#E6F1FF"/>
<path d="M18.9863 17.009L26.2511 10.2842C27.4199 9.20181 29.3135 9.19221 30.4967 10.2626L35.2079 14.5298C35.9087 15.1634 35.9423 16.1978 35.2847 16.8722L18.9863 17.009Z" fill="#0373F3"/>
<path d="M13.752 16.9947L18.204 10.3371C18.9912 9.08429 20.6592 8.56349 22.1064 9.11789C23.196 9.53549 24.216 9.92909 24.1848 9.92909C24.1176 9.92909 16.5144 16.9611 16.5144 16.9611L13.752 16.9947Z" fill="#68AEFD"/>
<path d="M35.1385 19.1523H13.1329C11.0257 19.1523 9.31445 20.8611 9.31445 22.9707V32.9595C9.31445 35.0667 11.0233 36.7779 13.1329 36.7779H35.1385C37.2457 36.7779 38.9569 35.0691 38.9569 32.9595V22.9683C38.9545 20.8611 37.2457 19.1523 35.1385 19.1523ZM14.9449 30.2955C13.6561 30.2955 12.6121 29.2515 12.6121 27.9627C12.6121 26.6739 13.6561 25.6299 14.9449 25.6299C16.2337 25.6299 17.2777 26.6739 17.2777 27.9627C17.2777 29.2515 16.2337 30.2955 14.9449 30.2955Z" fill="#025FCA"/>
<path d="M13.1329 19.1523C11.0257 19.1523 9.31445 20.8611 9.31445 22.9707V32.9595C9.31445 35.0667 11.0233 36.7779 13.1329 36.7779H28.2577C33.3265 32.9187 36.6001 26.8203 36.6001 19.9563C36.6001 19.7835 36.5977 19.6131 36.5929 19.4427C36.1308 19.2523 35.6358 19.1545 35.1361 19.1547H13.1329V19.1523ZM14.9449 30.2955C13.6561 30.2955 12.6121 29.2515 12.6121 27.9627C12.6121 26.6739 13.6561 25.6299 14.9449 25.6299C16.2337 25.6299 17.2777 26.6739 17.2777 27.9627C17.2777 29.2515 16.2337 30.2955 14.9449 30.2955Z" fill="#0373F3"/>
<path d="M30.1969 16.9132C30.6025 15.3988 30.8185 13.8172 30.8185 12.1852C30.8185 11.6116 30.7897 11.0428 30.7369 10.4812L30.4945 10.2604C29.3113 9.19001 27.4201 9.19961 26.2489 10.282L18.9865 17.0092L30.1969 16.9132ZM29.7337 19.1524H13.1329C11.0257 19.1524 9.31445 20.8612 9.31445 22.9708V32.9596C9.31445 33.1708 9.33605 33.3772 9.36965 33.5788C9.47525 33.5812 9.58085 33.5836 9.68885 33.5836C19.0153 33.5812 26.9305 27.538 29.7337 19.1524ZM14.9449 30.2956C13.6561 30.2956 12.6121 29.2516 12.6121 27.9628C12.6121 26.674 13.6561 25.63 14.9449 25.63C16.2337 25.63 17.2777 26.674 17.2777 27.9628C17.2777 29.2516 16.2337 30.2956 14.9449 30.2956Z" fill="#3592FD"/>
<path d="M21.2881 16.9876C22.4497 15.5524 23.4025 13.966 24.1081 12.2644L18.9865 17.0092L21.2881 16.9876ZM13.1329 19.1524C11.0257 19.1524 9.31445 20.8612 9.31445 22.9708V25.522C13.5169 24.514 17.2321 22.2532 20.0377 19.1548H13.1329V19.1524Z" fill="#68AEFD"/>
</svg>
