<svg width="48" height="49" viewBox="0 0 48 49" fill="none" xmlns="http://www.w3.org/2000/svg">
<path d="M2.78394 24.2138C2.78394 29.8183 5.01034 35.1933 8.97335 39.1564C12.9364 43.1194 18.3114 45.3458 23.9159 45.3458C29.5205 45.3458 34.8955 43.1194 38.8585 39.1564C42.8215 35.1933 45.0479 29.8183 45.0479 24.2138C45.0479 18.6092 42.8215 13.2342 38.8585 9.27121C34.8955 5.30819 29.5205 3.08179 23.9159 3.08179C18.3114 3.08179 12.9364 5.30819 8.97335 9.27121C5.01034 13.2342 2.78394 18.6092 2.78394 24.2138Z" fill="#E6F1FF"/>
<path d="M24.0313 22.1547L36.4993 14.9715C36.4489 14.9379 36.3985 14.9067 36.3457 14.8755L25.9249 8.82272C25.3525 8.49048 24.7028 8.31469 24.041 8.313C23.3791 8.31132 22.7285 8.48379 22.1545 8.81312L11.7025 14.8131C11.6497 14.8419 11.5993 14.8755 11.5513 14.9067L24.0313 22.1547Z" fill="#0373F3"/>
<path d="M25.7256 39.5187C25.7664 39.4971 25.8048 39.4779 25.8456 39.4563L36.2976 33.4563C37.4664 32.7867 38.1864 31.5435 38.1912 30.1971L38.2224 18.1443C38.2224 18.0843 38.22 18.0267 38.2176 17.9667L25.728 25.1619V39.5187H25.7256ZM22.2744 25.1283L9.81599 17.8899C9.81359 17.9499 9.80879 18.0099 9.80879 18.0723L9.77759 30.1227C9.77519 31.4691 10.4904 32.7147 11.6544 33.3915L22.0752 39.4443C22.14 39.4827 22.2048 39.5163 22.272 39.5499V25.1283H22.2744Z" fill="#025FCA"/>
<path d="M9.80879 18.0723L9.77759 30.1251C9.77519 31.4715 10.4904 32.7171 11.6544 33.3939L15.036 35.3571C17.4378 35.7264 19.8852 35.6818 22.272 35.2251V25.1283L9.81599 17.8899C9.81119 17.9523 9.80879 18.0123 9.80879 18.0723ZM25.728 34.2507C31.5504 32.0547 36.1464 27.3651 38.2152 21.4827L38.2248 18.1443C38.2248 18.0843 38.2224 18.0267 38.22 17.9667L25.728 25.1643V34.2507Z" fill="#0373F3"/>
<path d="M9.80891 18.0723L9.78491 27.9267C10.6729 28.0395 11.5753 28.0995 12.4945 28.0995C16.0249 28.0995 19.3513 27.2331 22.2745 25.7043V25.1307L9.81611 17.8899C9.81131 17.9523 9.80891 18.0123 9.80891 18.0723ZM30.0961 18.6603C31.2793 16.8843 32.1985 14.9187 32.8033 12.8187L25.9225 8.82272C25.3501 8.49048 24.7004 8.31469 24.0386 8.313C23.3768 8.31132 22.7262 8.48379 22.1521 8.81312L11.7001 14.8131C11.6473 14.8419 11.5969 14.8755 11.5489 14.9067L24.0289 22.1547L30.0961 18.6603Z" fill="#3592FD"/>
<path d="M25.9224 8.82272C25.3501 8.49048 24.7003 8.31469 24.0385 8.313C23.3767 8.31132 22.7261 8.48379 22.152 8.81312L11.7 14.8131C11.6472 14.8419 11.5968 14.8755 11.5488 14.9067L17.1168 18.1395C20.9901 16.0685 24.1254 12.8468 26.0904 8.91872L25.9224 8.82272Z" fill="#68AEFD"/>
</svg>
