<svg width="48" height="49" viewBox="0 0 48 49" fill="none" xmlns="http://www.w3.org/2000/svg">
<path d="M2.76953 24.1874C2.76953 29.792 4.99593 35.167 8.95895 39.13C12.922 43.093 18.297 45.3194 23.9015 45.3194C29.5061 45.3194 34.8811 43.093 38.8441 39.13C42.8071 35.167 45.0335 29.792 45.0335 24.1874C45.0335 18.5829 42.8071 13.2079 38.8441 9.24484C34.8811 5.28182 29.5061 3.05542 23.9015 3.05542C18.297 3.05542 12.922 5.28182 8.95895 9.24484C4.99593 13.2079 2.76953 18.5829 2.76953 24.1874Z" fill="#E6F1FF"/>
<path d="M35.8271 20.0092C35.4239 14.0404 30.3383 9.30518 24.1463 9.30518C17.9783 9.30518 12.9143 13.9996 12.4703 19.9324C10.8119 20.6404 9.64551 22.2868 9.64551 24.202V28.9636C9.64551 31.522 11.7263 33.6028 14.2847 33.6028H16.0727C17.0015 33.6028 17.7527 32.8516 17.7527 31.9228V21.2428C17.7527 20.314 17.0015 19.5628 16.0727 19.5628H15.8879C16.4927 15.6652 19.9655 12.6652 24.1439 12.6652C28.3247 12.6652 31.7951 15.6628 32.4023 19.5628H32.0639C31.1351 19.5628 30.3839 20.314 30.3839 21.2428V31.9228C30.3839 32.53 30.7079 33.0604 31.1903 33.3556C30.0935 34.4212 28.3487 35.638 25.8839 35.986C25.5768 35.7569 25.2039 35.6332 24.8207 35.6332H23.5967C23.1219 35.6332 22.6665 35.8218 22.3307 36.1576C21.9949 36.4933 21.8063 36.9487 21.8063 37.4236C21.8063 37.8984 21.9949 38.3538 22.3307 38.6896C22.6665 39.0253 23.1219 39.214 23.5967 39.214H24.8207C25.3511 39.214 25.8263 38.9812 26.1551 38.614C30.8399 38.002 33.5111 34.9348 34.4903 33.5524C36.7463 33.238 38.4887 31.3036 38.4887 28.9612V24.202C38.4935 22.3516 37.3991 20.7532 35.8271 20.0092Z" fill="#025FCA"/>
<path d="M38.3472 23.0548C38.0016 21.706 37.0655 20.5948 35.8295 20.0092C35.4263 14.0404 30.3407 9.30518 24.1487 9.30518C17.9807 9.30518 12.9167 13.9996 12.4727 19.9324C10.8143 20.6404 9.64795 22.2868 9.64795 24.202V28.9636C9.64795 31.522 11.7287 33.6028 14.2871 33.6028H16.0751C17.0039 33.6028 17.7551 32.8516 17.7551 31.9228V21.2428C17.7551 20.314 17.0039 19.5628 16.0751 19.5628H15.8879C16.4927 15.6652 19.9656 12.6652 24.144 12.6652C28.3248 12.6652 31.7952 15.6628 32.4024 19.5628H32.0639C31.1351 19.5628 30.384 20.314 30.384 21.2428V31.9228C30.384 32.1436 30.4272 32.3524 30.504 32.5444C33.9743 30.2428 36.7248 26.9428 38.3472 23.0548Z" fill="#0373F3"/>
<path d="M24.1463 9.30518C17.9783 9.30518 12.9143 13.9996 12.4703 19.9324C10.8119 20.6404 9.64551 22.2868 9.64551 24.202V28.2796C10.7543 28.4596 11.8943 28.5556 13.0535 28.5556C14.6687 28.5556 16.2407 28.3732 17.7527 28.03V21.2428C17.7527 20.314 17.0015 19.5628 16.0727 19.5628H15.8879C16.4927 15.6652 19.9655 12.6652 24.1439 12.6652C27.4895 12.6652 30.3791 14.5852 31.7111 17.35C32.3501 16.1511 32.8717 14.8932 33.2687 13.594C31.1207 10.9828 27.8303 9.30518 24.1463 9.30518Z" fill="#3592FD"/>
<path d="M24.1463 12.6652C24.2999 12.6652 24.4511 12.67 24.6047 12.6796C25.3439 11.7004 26.0015 10.6564 26.5655 9.55478C25.7855 9.39398 24.9767 9.30518 24.1463 9.30518C17.9783 9.30518 12.9143 13.9996 12.4703 19.9324C11.9735 20.1436 11.5223 20.4412 11.1311 20.8036C12.7723 20.5389 14.3763 20.0805 15.9095 19.438C16.5695 15.6004 20.0111 12.6652 24.1463 12.6652Z" fill="#68AEFD"/>
</svg>
