<svg width="1440" height="500" viewBox="0 0 1440 500" fill="none" xmlns="http://www.w3.org/2000/svg">
<path d="M1470.79 -293H-31.5789V794H1470.79V-293Z" fill="#025FCA"/>
<path d="M656.73 -210.316H555.756L719.605 250.503L656.73 -210.316Z" fill="#0373F3"/>
<path d="M882.645 -210.316H781.763L719.605 250.503L882.645 -210.316Z" fill="#0373F3"/>
<path d="M387.612 -210.316H196.68L719.605 250.503L387.612 -210.316Z" fill="#0373F3"/>
<path d="M1240.72 -210.316H1050.45L719.605 250.503L1240.72 -210.316Z" fill="#0373F3"/>
<path d="M1447.5 128.595V-67.1735L719.605 250.503L1447.5 128.595Z" fill="#0373F3"/>
<path d="M782.481 711.323H883.455L719.605 250.503L782.481 711.323Z" fill="#0373F3"/>
<path d="M1051.6 711.323H1242.53L719.605 250.503L1051.6 711.323Z" fill="#0373F3"/>
<path d="M719.605 250.503L1447.5 566.601V371.011L719.605 250.503Z" fill="#0373F3"/>
<path d="M-8.29102 -65.6006V129.99L719.605 250.503L-8.29102 -65.6006Z" fill="#0373F3"/>
<path d="M-8.29102 372.405V568.174L719.605 250.503L-8.29102 372.405Z" fill="#0373F3"/>
<path d="M198.49 711.323H388.762L719.605 250.503L198.49 711.323Z" fill="#0373F3"/>
<path d="M556.566 711.323H657.448L719.605 250.503L556.566 711.323Z" fill="#0373F3"/>
<path style="mix-blend-mode:soft-light" d="M1470.79 -293H-31.5789V794H1470.79V-293Z" fill="url(#paint0_radial_4951_1638)"/>
<defs>
<radialGradient id="paint0_radial_4951_1638" cx="0" cy="0" r="1" gradientUnits="userSpaceOnUse" gradientTransform="translate(719.605 250.503) scale(731.216 925.842)">
<stop stop-color="white"/>
<stop offset="1" stop-color="#231F20"/>
</radialGradient>
</defs>
</svg>
