<svg width="579" height="452" viewBox="0 0 579 452" fill="none" xmlns="http://www.w3.org/2000/svg">
<path opacity="0.1" d="M369.119 153.922C411.504 178.394 411.504 218.068 369.119 242.548C326.734 267.02 258.01 267.02 215.624 242.548C173.239 218.076 173.239 178.402 215.624 153.922C258.01 129.45 326.734 129.45 369.119 153.922Z" fill="black"/>
<path d="M405.669 194.14C405.433 180.942 396.594 167.793 379.16 157.729C343.803 137.315 286.475 137.315 251.119 157.729C233.465 167.923 224.626 181.275 224.61 194.635V207.257C224.861 220.438 233.701 233.579 251.119 243.636C286.475 264.049 343.803 264.049 379.16 243.636C396.797 233.457 405.628 220.122 405.669 206.77V194.14Z" fill="url(#paint0_linear_4951_1656)"/>
<path d="M379.16 157.729C414.516 178.142 414.516 211.234 379.16 231.655C343.803 252.069 286.483 252.069 251.119 231.655C215.763 211.242 215.763 178.142 251.119 157.729C286.475 137.315 343.803 137.315 379.16 157.729Z" fill="#F8FFFF"/>
<path d="M377.942 157.924C412.625 177.947 412.625 210.414 377.942 230.446C343.26 250.47 287.019 250.47 252.337 230.446C217.654 210.422 217.654 177.956 252.337 157.924C287.019 137.9 343.26 137.9 377.942 157.924Z" fill="url(#paint1_linear_4951_1656)"/>
<path d="M340.289 105.709L339.988 236.014L337.959 236.388L338.251 106.09L340.289 105.709Z" fill="#BA531C"/>
<path d="M292.855 106.09L292.554 236.396L290.517 236.006L290.809 105.709L292.855 106.09Z" fill="#BA531C"/>
<path d="M332.562 106.975L332.269 237.272L330.175 237.532L330.476 107.227L332.562 106.975Z" fill="#BA531C"/>
<path d="M300.647 107.227L300.347 237.532L298.261 237.272L298.553 106.975L300.647 107.227Z" fill="#BA531C"/>
<path d="M324.656 107.762L324.356 238.068L322.229 238.189L322.521 107.884L324.656 107.762Z" fill="#BA531C"/>
<path d="M308.601 107.892L308.301 238.189L306.182 238.068L306.475 107.762L308.601 107.892Z" fill="#BA531C"/>
<path d="M314.499 108.064L314.202 238.37L316.337 238.374L316.634 108.069L314.499 108.064Z" fill="#BA531C"/>
<path d="M402.747 71.9678L402.446 202.273L390.369 202.557L390.669 72.2519L402.747 71.9678Z" fill="url(#paint2_linear_4951_1656)"/>
<path d="M400.782 77.2111L400.49 207.516L388.42 207.062L388.721 76.7566L400.782 77.2111Z" fill="url(#paint3_linear_4951_1656)"/>
<path d="M397.885 82.3084L397.584 212.614L385.685 211.429L385.977 81.1234L397.885 82.3084Z" fill="url(#paint4_linear_4951_1656)"/>
<path d="M394.086 87.1947L393.794 217.5L382.155 215.609L382.455 85.3035L394.086 87.1947Z" fill="url(#paint5_linear_4951_1656)"/>
<path d="M389.427 91.8293L389.135 222.135L377.885 219.545L378.186 89.2482L389.427 91.8293Z" fill="url(#paint6_linear_4951_1656)"/>
<path d="M383.957 96.1555L383.656 226.453L372.934 223.206L373.226 92.9007L383.957 96.1555Z" fill="url(#paint7_linear_4951_1656)"/>
<path d="M377.731 100.116L377.431 230.422L367.35 226.534L367.642 96.2285L377.731 100.116Z" fill="url(#paint8_linear_4951_1656)"/>
<path d="M370.824 103.688L370.523 233.993L361.197 229.521L361.498 99.2155L370.824 103.688Z" fill="url(#paint9_linear_4951_1656)"/>
<path d="M363.299 106.813L363.007 237.118L354.542 232.11L354.834 101.805L363.299 106.813Z" fill="url(#paint10_linear_4951_1656)"/>
<path d="M355.264 109.467L354.964 239.772L347.448 234.285L347.748 103.98L355.264 109.467Z" fill="url(#paint11_linear_4951_1656)"/>
<path d="M346.782 111.618L346.482 241.923L339.989 236.014L340.289 105.709L346.782 111.618Z" fill="url(#paint12_linear_4951_1656)"/>
<path d="M337.959 113.249L337.659 243.554L332.269 237.272L332.562 106.975L337.959 113.249Z" fill="url(#paint13_linear_4951_1656)"/>
<path d="M301.175 114.223L300.874 244.529L300.347 237.532L300.647 107.227L301.175 114.223Z" fill="url(#paint14_linear_4951_1656)"/>
<path d="M328.876 114.329L328.576 244.634L324.355 238.068L324.656 107.762L328.876 114.329Z" fill="url(#paint15_linear_4951_1656)"/>
<path d="M310.387 114.816L310.086 245.121L308.301 238.189L308.601 107.892L310.387 114.816Z" fill="url(#paint16_linear_4951_1656)"/>
<path d="M319.656 114.856L319.356 245.162L316.336 238.368L316.629 108.063L319.656 114.856Z" fill="url(#paint17_linear_4951_1656)"/>
<path d="M238.895 67.6416L238.603 197.947L226.623 196.94L226.923 66.6351L238.895 67.6416Z" fill="url(#paint18_linear_4951_1656)"/>
<path d="M240.064 72.2519L239.772 202.557L227.686 202.273L227.986 71.9678L240.064 72.2519Z" fill="url(#paint19_linear_4951_1656)"/>
<path d="M242.052 76.7647L241.752 207.062L229.699 207.516L229.999 77.2111L242.052 76.7647Z" fill="url(#paint20_linear_4951_1656)"/>
<path d="M244.845 81.1315L244.544 211.437L232.653 212.614L232.954 82.3084L244.845 81.1315Z" fill="url(#paint21_linear_4951_1656)"/>
<path d="M248.416 85.3116L248.124 215.609L236.509 217.5L236.809 87.1947L248.416 85.3116Z" fill="url(#paint22_linear_4951_1656)"/>
<path d="M252.726 89.2401L252.434 219.545L241.217 222.135L241.517 91.8293L252.726 89.2401Z" fill="url(#paint23_linear_4951_1656)"/>
<path d="M257.734 92.9007L257.434 223.206L246.744 226.461L247.044 96.1555L257.734 92.9007Z" fill="url(#paint24_linear_4951_1656)"/>
<path d="M263.351 96.2285L263.059 226.534L253.018 230.422L253.31 100.125L263.351 96.2285Z" fill="url(#paint25_linear_4951_1656)"/>
<path d="M269.535 99.2155L269.235 229.521L259.966 233.993L260.258 103.688L269.535 99.2155Z" fill="url(#paint26_linear_4951_1656)"/>
<path d="M276.216 101.805L275.915 232.11L267.523 237.118L267.815 106.813L276.216 101.805Z" fill="url(#paint27_linear_4951_1656)"/>
<path d="M283.334 103.98L283.042 234.285L275.591 239.772L275.883 109.467L283.334 103.98Z" fill="url(#paint28_linear_4951_1656)"/>
<path d="M290.809 105.709L290.517 236.006L284.097 241.923L284.389 111.618L290.809 105.709Z" fill="url(#paint29_linear_4951_1656)"/>
<path d="M298.553 106.975L298.261 237.272L292.936 243.554L293.236 113.249L298.553 106.975Z" fill="url(#paint30_linear_4951_1656)"/>
<path d="M330.476 107.227L330.175 237.532L329.729 244.529L330.029 114.223L330.476 107.227Z" fill="url(#paint31_linear_4951_1656)"/>
<path d="M306.474 107.762L306.182 238.068L302.026 244.634L302.319 114.329L306.474 107.762Z" fill="url(#paint32_linear_4951_1656)"/>
<path d="M322.521 107.884L322.229 238.189L320.516 245.121L320.817 114.816L322.521 107.884Z" fill="url(#paint33_linear_4951_1656)"/>
<path d="M314.494 108.063L314.202 238.368L311.247 245.153L311.547 114.856L314.494 108.063Z" fill="url(#paint34_linear_4951_1656)"/>
<path d="M226.923 66.6351L226.623 196.94L226.558 196.267L226.858 65.9615L226.923 66.6351Z" fill="#FE9E0F"/>
<path d="M402.917 71.3022L402.616 201.607L402.446 202.273L402.746 71.9678L402.917 71.3022Z" fill="#FE9E0F"/>
<path d="M227.986 71.9678L227.686 202.273L227.499 201.607L227.8 71.3103L227.986 71.9678Z" fill="#FE9E0F"/>
<path d="M401.075 76.5618L400.774 206.867L400.49 207.516L400.782 77.2112L401.075 76.5618Z" fill="#FE9E0F"/>
<path d="M229.999 77.2112L229.699 207.516L229.399 206.867L229.699 76.5618L229.999 77.2112Z" fill="#FE9E0F"/>
<path d="M398.307 81.6753L398.006 211.981L397.584 212.614L397.885 82.3084L398.307 81.6753Z" fill="#FE9E0F"/>
<path d="M232.954 82.3084L232.653 212.614L232.239 211.981L232.531 81.6753L232.954 82.3084Z" fill="#FE9E0F"/>
<path d="M394.622 86.6021L394.322 216.899L393.794 217.5L394.086 87.1946L394.622 86.6021Z" fill="#FE9E0F"/>
<path d="M236.809 87.1946L236.509 217.5L235.981 216.899L236.273 86.6021L236.809 87.1946Z" fill="#FE9E0F"/>
<path d="M390.052 91.2693L389.76 221.575L389.135 222.135L389.427 91.8293L390.052 91.2693Z" fill="#FE9E0F"/>
<path d="M241.517 91.8293L241.217 222.135L240.592 221.575L240.884 91.2693L241.517 91.8293Z" fill="#FE9E0F"/>
<path d="M384.687 95.636L384.387 225.933L383.656 226.453L383.956 96.1555L384.687 95.636Z" fill="#FE9E0F"/>
<path d="M247.044 96.1555L246.744 226.461L246.013 225.933L246.306 95.636L247.044 96.1555Z" fill="#FE9E0F"/>
<path d="M378.543 99.6456L378.25 229.951L377.431 230.422L377.731 100.116L378.543 99.6456Z" fill="#FE9E0F"/>
<path d="M253.31 100.125L253.018 230.422L252.19 229.951L252.482 99.6456L253.31 100.125Z" fill="#FE9E0F"/>
<path d="M371.724 103.258L371.424 233.563L370.523 233.993L370.823 103.688L371.724 103.258Z" fill="#FE9E0F"/>
<path d="M260.258 103.688L259.966 233.993L259.057 233.571L259.349 103.266L260.258 103.688Z" fill="#FE9E0F"/>
<path d="M364.282 106.448L363.981 236.753L363.007 237.118L363.3 106.813L364.282 106.448Z" fill="#FE9E0F"/>
<path d="M267.815 106.813L267.523 237.118L266.541 236.753L266.833 106.448L267.815 106.813Z" fill="#FE9E0F"/>
<path d="M356.295 109.167L355.994 239.464L354.964 239.772L355.264 109.467L356.295 109.167Z" fill="#FE9E0F"/>
<path d="M275.883 109.467L275.591 239.772L274.552 239.472L274.844 109.167L275.883 109.467Z" fill="#FE9E0F"/>
<path d="M347.862 111.382L347.561 241.68L346.482 241.923L346.782 111.618L347.862 111.382Z" fill="#FE9E0F"/>
<path d="M284.389 111.618L284.097 241.923L283.001 241.68L283.302 111.382L284.389 111.618Z" fill="#FE9E0F"/>
<path d="M339.079 113.071L338.779 243.376L337.659 243.554L337.959 113.249L339.079 113.071Z" fill="#FE9E0F"/>
<path d="M293.236 113.249L292.936 243.554L291.816 243.376L292.116 113.071L293.236 113.249Z" fill="#FE9E0F"/>
<path d="M330.029 114.223L329.729 244.529L328.576 244.634L328.877 114.329L330.029 114.223Z" fill="#FE9E0F"/>
<path d="M302.319 114.329L302.027 244.634L300.874 244.529L301.174 114.223L302.319 114.329Z" fill="#FE9E0F"/>
<path d="M320.817 114.816L320.516 245.121L319.356 245.162L319.656 114.856L320.817 114.816Z" fill="#FE9E0F"/>
<path d="M311.547 114.856L311.247 245.153L310.086 245.121L310.387 114.816L311.547 114.856Z" fill="#FE9E0F"/>
<path d="M404.232 51.2783C403.997 38.2917 395.304 25.3455 378.145 15.4432C343.349 -4.64561 286.93 -4.64561 252.133 15.4432C234.756 25.4754 226.063 38.6244 226.038 51.7735L226.046 64.192C226.298 77.1625 234.991 90.0923 252.133 99.9947C286.93 120.083 343.349 120.083 378.145 99.9947C395.498 89.9706 404.2 76.8459 404.24 63.7131L404.232 51.2783Z" fill="url(#paint35_linear_4951_1656)"/>
<path d="M378.145 15.4351C412.941 35.5238 412.941 68.0961 378.145 88.193C343.349 108.282 286.93 108.282 252.133 88.193C217.337 68.1042 217.337 35.532 252.133 15.4351C286.93 -4.66185 343.349 -4.65374 378.145 15.4351Z" fill="#F8FFFF"/>
<path d="M376.952 15.6299C411.09 35.3372 411.09 67.2926 376.952 87.008C342.813 106.723 287.465 106.715 253.326 87.008C219.188 67.3007 219.188 35.3453 253.326 15.6299C287.465 -4.0774 342.813 -4.0774 376.952 15.6299Z" fill="url(#paint36_linear_4951_1656)"/>
<path d="M354.679 27.6751C376.521 40.2803 376.521 60.7262 354.679 73.3396C332.837 85.9448 297.432 85.9448 275.59 73.3396C253.748 60.7343 253.748 40.2884 275.59 27.6751C297.432 15.0618 332.846 15.0618 354.679 27.6751Z" fill="#F8FFFF"/>
<path d="M354.679 28.4867C376.521 41.092 376.521 61.5379 354.679 74.1431C332.837 86.7483 297.432 86.7483 275.59 74.1431C253.748 61.5379 253.748 41.092 275.59 28.4867C297.432 15.8815 332.846 15.8815 354.679 28.4867Z" fill="url(#paint37_linear_4951_1656)"/>
<path d="M354.68 32.9509C332.838 20.3376 297.433 20.3376 275.599 32.9509C265.664 38.6894 260.266 46.0431 259.365 53.5511C260.258 61.059 265.656 68.4127 275.599 74.1512C297.441 86.7564 332.846 86.7564 354.688 74.1512C364.623 68.4127 370.02 61.059 370.921 53.5511C370.02 46.0431 364.623 38.6894 354.68 32.9509Z" fill="url(#paint38_linear_4951_1656)"/>
<path d="M331.653 41.0189C340.776 46.2866 340.776 54.8253 331.653 60.0849C322.529 65.3527 307.741 65.3527 298.626 60.0849C289.503 54.8172 289.503 46.2785 298.626 41.0189C307.749 35.7511 322.538 35.7511 331.653 41.0189Z" fill="#F8FFFF"/>
<path d="M331.653 41.7332C340.776 47.0009 340.776 55.5397 331.653 60.7993C322.529 66.067 307.741 66.067 298.626 60.7993C289.503 55.5316 289.503 46.9928 298.626 41.7332C307.749 36.4655 322.538 36.4655 331.653 41.7332Z" fill="url(#paint39_linear_4951_1656)"/>
<path d="M331.653 49.0138C322.529 43.746 307.741 43.746 298.626 49.0138C295.688 50.7101 293.699 52.7474 292.652 54.9065C293.699 57.0655 295.688 59.1028 298.626 60.7992C307.749 66.0669 322.538 66.0669 331.653 60.7992C334.591 59.1028 336.579 57.0574 337.626 54.9065C336.579 52.7474 334.599 50.7101 331.653 49.0138Z" fill="#32414A"/>
<path opacity="0.1" d="M322.213 257.491L436.528 191.486L553.506 244.09L406.635 328.885L326.929 293.042C298.147 280.161 313.179 262.15 322.213 257.491Z" fill="black"/>
<path d="M576.768 192.411L536.883 216.364L521.404 177.184L561.33 154.068L576.768 192.411Z" fill="#414E52"/>
<path d="M576.768 192.411L536.883 216.364L538.668 250.916L578.586 228.944L576.768 192.411Z" fill="#344145"/>
<path d="M566.387 252.142L526.461 275.258L538.668 250.916L578.586 228.944L566.387 252.142Z" fill="#273438"/>
<path d="M535.82 121.569L495.894 144.685L521.405 177.184L561.331 154.068L535.82 121.569Z" fill="#4E5B5F"/>
<path d="M535.82 121.569L495.894 144.685L466.154 125.465L506.08 102.349L535.82 121.569Z" fill="#5B686C"/>
<path d="M478.914 100.815L438.988 123.931L466.154 125.465L506.08 102.349L478.914 100.815Z" fill="#4E5B5F"/>
<path d="M477.347 130.603C459.831 120.489 443.987 119.67 432.64 126.528L359.736 169.133C349.047 175.91 342.48 189.652 342.48 208.953C342.48 248.806 370.458 297.271 404.979 317.197C421.667 326.832 436.829 328.033 448.038 322.197L521.818 279.138C532.954 272.539 539.837 258.603 539.837 238.847C539.846 198.994 511.867 150.537 477.347 130.603Z" fill="url(#paint40_linear_4951_1656)"/>
<path d="M342.488 208.961C342.488 248.814 370.466 297.279 404.987 317.205C421.675 326.84 436.837 328.041 448.046 322.205L465.164 312.238C469.677 304.6 472.225 294.487 472.225 282.206C472.225 240.592 443.013 189.992 406.975 169.181C395.255 162.412 384.257 159.636 374.744 160.399L359.744 169.141C349.055 175.91 342.488 189.66 342.488 208.961Z" fill="url(#paint41_linear_4951_1656)"/>
<path d="M404.987 169.693C387.69 159.701 371.96 158.394 360.28 164.344L352.334 168.418C340.248 175.115 332.756 189.846 332.748 210.925C332.748 252.54 361.96 303.139 398.006 323.95C414.905 333.707 430.311 335.176 441.901 329.697L450.067 325.533C462.493 318.991 470.237 304.129 470.237 282.709C470.245 241.103 441.025 190.496 404.987 169.693Z" fill="url(#paint42_linear_4951_1656)"/>
<path d="M463.265 286.281C463.265 327.895 434.044 344.762 398.006 323.958C361.968 303.155 332.748 252.548 332.756 210.934C332.756 169.319 361.976 152.453 398.014 173.256C434.053 194.059 463.273 244.658 463.265 286.281Z" fill="#2E383B"/>
<path d="M460.505 284.682C460.505 324.535 432.527 340.687 398.006 320.76C363.494 300.834 335.508 252.369 335.508 212.516C335.508 172.663 363.486 156.511 398.006 176.438C432.527 196.364 460.513 244.829 460.505 284.682Z" fill="url(#paint43_linear_4951_1656)"/>
<path d="M456.398 282.312C456.398 319.551 430.254 334.64 398.006 316.02C365.759 297.401 339.623 252.126 339.623 214.895C339.623 177.663 365.767 162.566 398.014 181.186C430.262 199.798 456.398 245.08 456.398 282.312Z" fill="#2E383B"/>
<path d="M449.693 278.44C449.693 311.402 426.553 324.762 398.006 308.277C369.46 291.8 346.319 251.72 346.319 218.758C346.319 185.796 369.46 172.436 398.006 188.921C426.561 205.406 449.702 245.478 449.693 278.44Z" fill="url(#paint44_linear_4951_1656)"/>
<path d="M446.544 276.622C446.544 307.571 424.816 320.119 398.015 304.641C371.213 289.17 349.485 251.533 349.485 220.584C349.485 189.635 371.213 177.095 398.015 192.566C424.816 208.036 446.544 245.673 446.544 276.622Z" fill="url(#paint45_linear_4951_1656)"/>
<path d="M444.702 275.559C444.702 305.339 423.793 317.4 398.007 302.514C372.22 287.628 351.311 251.42 351.311 221.639C351.311 191.859 372.212 179.798 398.007 194.684C423.801 209.578 444.702 245.787 444.702 275.559Z" fill="url(#paint46_linear_4951_1656)"/>
<path d="M404.216 261.395C395.75 256.509 388.891 244.626 388.891 234.845C388.891 231.745 389.581 229.229 390.799 227.394C385.247 226.85 381.343 230.917 381.343 238.287C381.343 248.059 388.201 259.942 396.667 264.828C402.446 268.164 407.478 267.377 410.084 263.432C408.282 263.254 406.302 262.596 404.216 261.395Z" fill="url(#paint47_linear_4951_1656)"/>
<path d="M396.675 229.44C394.597 228.238 392.609 227.573 390.807 227.394C389.589 229.229 388.899 231.745 388.899 234.845C388.899 244.618 395.758 256.501 404.224 261.395C406.302 262.596 408.29 263.262 410.1 263.44C411.318 261.606 412.008 259.09 412.008 255.989C411.999 246.209 405.141 234.326 396.675 229.44Z" fill="#2E383B"/>
<path d="M366.084 234.967C363.405 233.425 361.238 229.667 361.238 226.574C361.238 225.292 361.611 224.334 362.236 223.758C360.686 223.79 359.623 225.048 359.623 227.216C359.623 230.308 361.79 234.066 364.468 235.608C366.035 236.517 367.431 236.452 368.316 235.633C367.65 235.641 366.895 235.438 366.084 234.967Z" fill="url(#paint48_linear_4951_1656)"/>
<path d="M364.468 224.415C363.664 223.953 362.91 223.742 362.236 223.758C361.611 224.342 361.238 225.3 361.238 226.574C361.238 229.667 363.405 233.425 366.083 234.967C366.887 235.43 367.642 235.641 368.315 235.625C368.94 235.04 369.314 234.082 369.314 232.808C369.322 229.716 367.147 225.958 364.468 224.415Z" fill="#2E383B"/>
<path d="M375.523 214.123C372.845 212.581 370.678 208.823 370.678 205.731C370.678 204.456 371.051 203.499 371.676 202.914C370.126 202.947 369.062 204.205 369.062 206.372C369.062 209.464 371.23 213.223 373.908 214.765C375.475 215.674 376.871 215.609 377.755 214.789C377.082 214.789 376.327 214.586 375.523 214.123Z" fill="url(#paint49_linear_4951_1656)"/>
<path d="M373.9 203.564C373.096 203.101 372.341 202.89 371.668 202.906C371.043 203.491 370.669 204.448 370.669 205.723C370.669 208.815 372.837 212.573 375.515 214.115C376.319 214.578 377.073 214.789 377.747 214.773C378.372 214.188 378.746 213.231 378.746 211.956C378.746 208.872 376.578 205.114 373.9 203.564Z" fill="#2E383B"/>
<path d="M398.291 216.372C395.612 214.83 393.445 211.072 393.445 207.979C393.445 206.697 393.818 205.739 394.443 205.163C392.893 205.195 391.83 206.453 391.83 208.62C391.83 211.713 393.997 215.471 396.675 217.013C398.242 217.922 399.638 217.857 400.523 217.029C399.849 217.045 399.094 216.843 398.291 216.372Z" fill="url(#paint50_linear_4951_1656)"/>
<path d="M396.675 205.82C395.872 205.357 395.117 205.146 394.443 205.163C393.818 205.747 393.445 206.705 393.445 207.979C393.445 211.072 395.612 214.83 398.29 216.372C399.094 216.834 399.849 217.045 400.523 217.029C401.148 216.445 401.521 215.487 401.521 214.213C401.521 211.12 399.354 207.362 396.675 205.82Z" fill="#2E383B"/>
<path d="M421.058 240.413C418.379 238.871 416.212 235.113 416.212 232.021C416.212 230.738 416.586 229.781 417.211 229.204C415.66 229.237 414.589 230.495 414.589 232.662C414.589 235.754 416.756 239.512 419.435 241.055C421.001 241.964 422.397 241.899 423.282 241.079C422.624 241.087 421.87 240.876 421.058 240.413Z" fill="url(#paint51_linear_4951_1656)"/>
<path d="M419.443 229.862C418.639 229.399 417.884 229.188 417.211 229.204C416.586 229.789 416.212 230.746 416.212 232.021C416.212 235.113 418.379 238.871 421.058 240.413C421.861 240.876 422.616 241.087 423.29 241.071C423.915 240.486 424.288 239.529 424.288 238.254C424.288 235.162 422.121 231.404 419.443 229.862Z" fill="#2E383B"/>
<path d="M430.498 272.158C427.819 270.616 425.652 266.849 425.652 263.765C425.652 262.491 426.025 261.533 426.65 260.949C425.1 260.981 424.037 262.239 424.037 264.406C424.037 267.499 426.204 271.257 428.882 272.799C430.449 273.708 431.845 273.643 432.73 272.823C432.056 272.823 431.301 272.62 430.498 272.158Z" fill="url(#paint52_linear_4951_1656)"/>
<path d="M428.874 261.598C428.071 261.135 427.316 260.924 426.642 260.941C426.017 261.525 425.644 262.483 425.644 263.757C425.644 266.849 427.811 270.607 430.489 272.15C431.293 272.612 432.048 272.823 432.722 272.807C433.347 272.223 433.72 271.265 433.72 269.991C433.728 266.898 431.553 263.14 428.874 261.598Z" fill="#2E383B"/>
<path d="M421.058 293.001C418.388 291.459 416.212 287.701 416.212 284.609C416.212 283.334 416.586 282.369 417.211 281.792C415.66 281.825 414.597 283.083 414.597 285.25C414.597 288.342 416.764 292.1 419.443 293.643C421.009 294.552 422.405 294.487 423.29 293.659C422.625 293.675 421.87 293.464 421.058 293.001Z" fill="url(#paint53_linear_4951_1656)"/>
<path d="M419.443 282.45C418.639 281.987 417.884 281.776 417.211 281.792C416.586 282.377 416.212 283.334 416.212 284.609C416.212 287.701 418.379 291.459 421.058 293.001C421.861 293.464 422.624 293.675 423.29 293.659C423.915 293.074 424.288 292.117 424.288 290.842C424.288 287.75 422.121 283.992 419.443 282.45Z" fill="#2E383B"/>
<path d="M398.291 290.745C395.612 289.203 393.445 285.445 393.445 282.352C393.445 281.07 393.818 280.112 394.443 279.536C392.893 279.568 391.822 280.826 391.822 282.993C391.822 286.086 393.989 289.844 396.667 291.386C398.242 292.295 399.63 292.23 400.514 291.402C399.849 291.419 399.094 291.208 398.291 290.745Z" fill="url(#paint54_linear_4951_1656)"/>
<path d="M396.675 280.193C395.872 279.731 395.117 279.52 394.443 279.536C393.818 280.12 393.445 281.078 393.445 282.352C393.445 285.445 395.612 289.203 398.29 290.745C399.094 291.208 399.849 291.419 400.523 291.402C401.148 290.826 401.521 289.86 401.521 288.586C401.521 285.493 399.354 281.735 396.675 280.193Z" fill="#2E383B"/>
<path d="M375.515 266.711C372.837 265.169 370.669 261.411 370.669 258.319C370.669 257.036 371.043 256.079 371.668 255.502C370.118 255.535 369.046 256.793 369.046 258.96C369.046 262.052 371.213 265.81 373.892 267.353C375.458 268.262 376.854 268.197 377.739 267.369C377.082 267.377 376.327 267.174 375.515 266.711Z" fill="url(#paint55_linear_4951_1656)"/>
<path d="M373.9 256.152C373.096 255.689 372.341 255.478 371.668 255.494C371.043 256.079 370.669 257.036 370.669 258.311C370.669 261.403 372.837 265.161 375.515 266.703C376.319 267.166 377.073 267.377 377.747 267.361C378.372 266.776 378.746 265.819 378.746 264.544C378.746 261.46 376.578 257.702 373.9 256.152Z" fill="#2E383B"/>
<path opacity="0.1" d="M333.593 292.068L213.847 222.768C201.761 215.787 182.095 215.787 170.009 222.768L166.681 224.683L119.028 197.338C106.942 190.358 117.348 207.557 105.262 214.537L9.88291 270.916C-2.20283 277.896 -2.20283 289.251 9.88291 296.224L129.62 365.524C133.37 367.691 137.851 369.185 142.607 370.004L207.857 382.025C216.087 382.163 224.399 380.418 230.673 376.798L333.593 317.376C345.678 310.395 345.678 299.048 333.593 292.068Z" fill="black"/>
<path d="M227.386 370.759C215.3 377.74 195.633 377.74 183.548 370.759L33.7298 284.268C21.6441 277.288 21.6441 265.932 33.7298 258.96L136.649 199.538C148.735 192.557 168.402 192.557 180.488 199.538L330.297 286.037C342.383 293.018 342.383 304.373 330.297 311.345L227.386 370.759Z" fill="#687579"/>
<path d="M330.297 311.337L227.378 370.759C215.292 377.74 195.625 377.74 183.539 370.759L33.7298 284.268C27.829 280.859 24.8177 276.411 24.6797 271.939L24.6716 271.947V278.172C24.834 282.628 27.8534 287.052 33.7298 290.445L183.539 376.936C195.625 383.916 215.292 383.916 227.378 376.936L330.297 317.514C336.036 314.202 339.047 309.9 339.339 305.558V299.373H339.331C339.055 303.724 336.044 308.025 330.297 311.337Z" fill="url(#paint56_linear_4951_1656)"/>
<path d="M216.947 364.737C210.616 368.389 200.316 368.389 193.985 364.737L44.1675 278.237C37.8364 274.585 37.8364 268.635 44.1675 264.974L147.087 205.552C153.418 201.9 163.718 201.9 170.049 205.552L319.867 292.044C326.198 295.704 326.198 301.646 319.867 305.306L216.947 364.737Z" stroke="black" stroke-width="0.202917" stroke-miterlimit="10"/>
<path d="M53.8997 224.935V239.025L43.0234 244.504C43.0234 244.504 37.1956 239.813 39.4196 234.926C41.6435 230.032 53.8997 224.935 53.8997 224.935Z" fill="#2E383B"/>
<path d="M319.859 257.629L170.049 171.129C163.718 167.477 153.418 167.477 147.087 171.129L137.355 176.746L135.618 175.74V210.171L137.355 211.177L147.087 205.56C153.418 201.908 163.718 201.908 170.049 205.56L310.931 286.898L310.135 276.508L319.867 270.892C326.19 267.231 326.19 261.281 319.859 257.629Z" fill="url(#paint57_linear_4951_1656)"/>
<path d="M320.249 268.4V261.931L314.754 265.113V258.708L309.234 261.898V255.527L303.707 258.717V252.337L298.188 255.527V249.123L292.66 252.312V245.925L287.141 249.115V242.751L281.613 245.941V239.553L276.094 242.751V236.363L270.575 239.561V233.19L265.047 236.379V230L259.479 233.222V226.802L254.008 229.967V223.644L248.481 226.834V220.43L242.962 223.628V217.24L237.434 220.438V214.059L231.915 217.248V210.869L226.396 214.059V207.703L220.868 210.893V204.497L215.349 207.695V201.315L209.821 204.505V198.093L204.302 201.291V194.919L198.726 198.15V191.762L193.255 194.919V188.548L187.736 191.738V185.382L182.208 188.58V182.16L176.689 185.35V178.994L171.113 182.225V175.813L164.774 179.473V173.102L154.425 179.084V172.68L98.0464 205.268L97.6162 227.297L270.599 333.739L320.249 305.071V296.11L324.039 292.482V266.208L320.249 268.4Z" fill="#C4CBCF"/>
<path d="M204.326 194.936L202.743 194.026L140.675 229.862L142.258 230.779L204.326 194.936Z" fill="#DEE5E9"/>
<path d="M209.845 198.125L208.271 197.216L146.194 233.052L147.777 233.969L209.845 198.125Z" fill="#DEE5E9"/>
<path d="M242.986 217.256L241.403 216.347L179.335 252.183L180.909 253.1L242.986 217.256Z" fill="#DEE5E9"/>
<path d="M215.373 201.315L213.79 200.406L151.722 236.241L153.297 237.159L215.373 201.315Z" fill="#DEE5E9"/>
<path d="M237.458 214.067L235.884 213.158L173.807 248.993L175.39 249.91L237.458 214.067Z" fill="#DEE5E9"/>
<path d="M231.939 210.885L230.356 209.968L168.288 245.811L169.871 246.72L231.939 210.885Z" fill="#DEE5E9"/>
<path d="M226.42 207.695L224.837 206.778L162.76 242.621L164.343 243.53L226.42 207.695Z" fill="#DEE5E9"/>
<path d="M220.892 204.505L219.309 203.596L157.241 239.431L158.824 240.34L220.892 204.505Z" fill="#DEE5E9"/>
<path d="M164.798 173.126C164.019 172.939 163.215 172.793 162.404 172.688L102.015 207.549L103.598 208.458L164.798 173.126Z" fill="#DEE5E9"/>
<path d="M171.194 175.805L170.049 175.147C169.903 175.058 169.741 174.985 169.587 174.904L107.535 210.731L109.117 211.64L171.194 175.805Z" fill="#DEE5E9"/>
<path d="M198.807 191.754L197.224 190.837L135.156 226.68L136.73 227.589L198.807 191.754Z" fill="#DEE5E9"/>
<path d="M98.0789 205.269L154.449 172.721C151.746 173.126 149.198 173.93 147.087 175.148L96.4961 204.359L98.0789 205.269Z" fill="#DEE5E9"/>
<path d="M187.76 185.374L186.177 184.465L124.109 220.3L125.692 221.209L187.76 185.374Z" fill="#DEE5E9"/>
<path d="M176.713 178.994L175.13 178.085L113.062 213.921L114.645 214.838L176.713 178.994Z" fill="#DEE5E9"/>
<path d="M182.241 182.184L180.658 181.275L118.582 217.11L120.164 218.028L182.241 182.184Z" fill="#DEE5E9"/>
<path d="M193.279 188.564L191.705 187.647L129.628 223.49L131.211 224.399L193.279 188.564Z" fill="#DEE5E9"/>
<path d="M309.259 255.519L307.676 254.609L245.6 290.445L247.182 291.362L309.259 255.519Z" fill="#DEE5E9"/>
<path d="M303.731 252.337L302.148 251.42L240.08 287.255L241.663 288.172L303.731 252.337Z" fill="#DEE5E9"/>
<path d="M298.212 249.147L296.629 248.23L234.561 284.065L236.136 284.982L298.212 249.147Z" fill="#DEE5E9"/>
<path d="M314.778 258.708L313.195 257.799L251.127 293.634L252.71 294.544L314.778 258.708Z" fill="#DEE5E9"/>
<path d="M292.684 245.957L291.11 245.04L229.033 280.883L230.616 281.792L292.684 245.957Z" fill="#DEE5E9"/>
<path d="M320.281 261.914C320.143 261.825 320.013 261.736 319.867 261.647L318.723 260.989L256.655 296.824L258.237 297.733L320.281 261.914Z" fill="#DEE5E9"/>
<path d="M319.867 274.901C321.969 273.684 323.365 272.206 324.063 270.656L267.693 303.204L269.276 304.113L319.867 274.901Z" fill="#DEE5E9"/>
<path d="M324.137 266.062C323.942 265.591 323.698 265.129 323.374 264.682L262.174 300.014L263.757 300.923L324.137 266.062Z" fill="#DEE5E9"/>
<path d="M259.552 226.826L257.969 225.909L195.901 261.752L197.484 262.661L259.552 226.826Z" fill="#DEE5E9"/>
<path d="M265.071 230.016L263.497 229.099L201.42 264.942L203.003 265.851L265.071 230.016Z" fill="#DEE5E9"/>
<path d="M248.506 220.446L246.923 219.537L184.854 255.372L186.437 256.29L248.506 220.446Z" fill="#DEE5E9"/>
<path d="M254.033 223.636L252.45 222.727L190.374 258.562L191.956 259.471L254.033 223.636Z" fill="#DEE5E9"/>
<path d="M287.165 242.767L285.582 241.858L223.514 277.693L225.089 278.602L287.165 242.767Z" fill="#DEE5E9"/>
<path d="M281.637 239.577L280.063 238.668L217.986 274.503L219.569 275.421L281.637 239.577Z" fill="#DEE5E9"/>
<path d="M270.599 233.198L269.016 232.289L206.948 268.124L208.523 269.041L270.599 233.198Z" fill="#DEE5E9"/>
<path d="M276.118 236.387L274.535 235.478L212.467 271.314L214.05 272.231L276.118 236.387Z" fill="#DEE5E9"/>
<path d="M321.604 271.89L311.872 277.507L310.135 276.5V310.931L311.872 311.938L321.604 306.321C325.24 304.219 327.059 301.451 327.059 298.691V264.26C327.059 267.028 325.24 269.796 321.604 271.89Z" fill="#414E52"/>
<path d="M311.872 311.938L310.135 310.931V276.508L311.872 277.507V311.938Z" fill="#2E383B"/>
<path d="M145.342 170.131L135.61 175.748L137.347 176.754L147.079 171.138C153.41 167.485 163.71 167.485 170.041 171.138L319.859 257.637C326.19 261.29 326.19 267.239 319.859 270.9L310.127 276.516L311.864 277.523L321.596 271.906C328.869 267.71 328.869 260.835 321.596 256.639L171.786 170.131C164.514 165.927 152.615 165.927 145.342 170.131Z" fill="#687579"/>
<path d="M269.276 302.108V336.531L93.0139 234.772V200.341L269.276 302.108Z" fill="#2E383B"/>
<path d="M271.013 301.102L269.276 302.108L93.0139 200.341L94.7509 199.335L271.013 301.102Z" fill="#687579"/>
<path d="M271.013 335.533L269.276 336.531V302.108L271.013 301.102V335.533Z" fill="#414E52"/>
<path d="M262.012 308.309V301.93L256.492 305.12V298.748L250.965 301.938V295.534L245.445 298.724V292.328L239.918 295.518V289.162L234.399 292.352V285.956L228.879 289.146V282.831L223.352 286.021V279.633L217.832 282.823V276.387L212.305 279.576V273.18L206.786 276.37V270.096L201.266 273.294V266.858L195.739 270.047V263.611L190.219 266.801V260.413L184.692 263.603V257.329L179.173 260.518V254.082L173.653 257.272V250.916L168.126 254.106V247.702L162.606 250.892V244.504L157.079 247.694V241.355L151.56 244.545V238.181L146.04 241.371V234.975L140.513 238.165V231.81L134.994 235V228.604L129.474 231.793V225.406L123.947 228.604V222.232L118.427 225.422V219.042L112.9 222.232V215.86L107.381 219.05V212.638L101.861 215.828V209.448L96.3338 212.638V206.266L39.9634 238.823L42.3903 243.798L40.6614 244.796L51.5378 262.507L222.735 361.409L267.531 335.63V305.12L262.012 308.309Z" fill="#C4CBCF"/>
<path d="M146.04 234.967L144.457 234.058L82.3892 269.893L83.9638 270.81L146.04 234.967Z" fill="#DEE5E9"/>
<path d="M151.559 238.157L149.977 237.248L87.9084 273.083L89.4912 274L151.559 238.157Z" fill="#DEE5E9"/>
<path d="M254.909 297.831L192.841 333.666L193.985 334.323C194.131 334.405 194.294 334.478 194.448 334.559L256.492 298.74L254.909 297.831Z" fill="#DEE5E9"/>
<path d="M162.607 244.537L161.024 243.62L98.9556 279.463L100.538 280.372L162.607 244.537Z" fill="#DEE5E9"/>
<path d="M168.126 247.727L166.551 246.809L104.475 282.653L106.057 283.562L168.126 247.727Z" fill="#DEE5E9"/>
<path d="M157.079 241.347L155.504 240.438L93.4277 276.273L95.0105 277.182L157.079 241.347Z" fill="#DEE5E9"/>
<path d="M134.993 228.595L133.411 227.678L71.3423 263.522L72.925 264.431L134.993 228.595Z" fill="#DEE5E9"/>
<path d="M140.513 231.785L138.938 230.868L76.8618 266.703L78.4446 267.62L140.513 231.785Z" fill="#DEE5E9"/>
<path d="M173.653 250.916L172.071 249.999L110.002 285.834L111.577 286.751L173.653 250.916Z" fill="#DEE5E9"/>
<path d="M101.861 209.464L100.278 208.555L39.8984 243.417C40.0932 243.887 40.3367 244.35 40.6614 244.796L101.861 209.464Z" fill="#DEE5E9"/>
<path d="M105.797 211.737L43.7534 247.564C43.8914 247.653 44.0213 247.743 44.1674 247.832L45.3118 248.49L107.38 212.654L105.797 211.737Z" fill="#DEE5E9"/>
<path d="M129.474 225.406L127.891 224.488L65.823 260.332L67.3976 261.241L129.474 225.406Z" fill="#DEE5E9"/>
<path d="M112.9 215.836L111.325 214.927L49.2488 250.762L50.8315 251.679L112.9 215.836Z" fill="#DEE5E9"/>
<path d="M123.946 222.216L122.372 221.307L60.2954 257.142L61.8782 258.051L123.946 222.216Z" fill="#DEE5E9"/>
<path d="M118.427 219.026L116.844 218.117L54.7761 253.952L56.3508 254.869L118.427 219.026Z" fill="#DEE5E9"/>
<path d="M96.3337 206.275L94.751 205.366L44.1597 234.569C42.0494 235.787 40.6614 237.264 39.9634 238.814L96.3337 206.275Z" fill="#DEE5E9"/>
<path d="M179.173 254.098L177.59 253.189L115.521 289.024L117.104 289.941L179.173 254.098Z" fill="#DEE5E9"/>
<path d="M245.445 292.36L243.862 291.451L181.794 327.286L183.369 328.203L245.445 292.36Z" fill="#DEE5E9"/>
<path d="M234.398 285.989L232.816 285.071L170.747 320.915L172.33 321.824L234.398 285.989Z" fill="#DEE5E9"/>
<path d="M228.879 282.799L227.297 281.881L165.228 317.725L166.803 318.634L228.879 282.799Z" fill="#DEE5E9"/>
<path d="M267.531 305.12L265.948 304.211L209.578 336.758C212.272 336.353 214.829 335.549 216.939 334.332L267.531 305.12Z" fill="#DEE5E9"/>
<path d="M223.351 279.609L221.777 278.7L159.7 314.535L161.283 315.444L223.351 279.609Z" fill="#DEE5E9"/>
<path d="M262.012 301.93L260.429 301.021L199.229 336.361C200.008 336.547 200.812 336.693 201.623 336.799L262.012 301.93Z" fill="#DEE5E9"/>
<path d="M250.965 295.55L249.39 294.641L187.314 330.476L188.896 331.393L250.965 295.55Z" fill="#DEE5E9"/>
<path d="M239.918 289.178L238.343 288.261L176.267 324.105L177.85 325.014L239.918 289.178Z" fill="#DEE5E9"/>
<path d="M190.219 260.478L188.636 259.569L126.568 295.404L128.143 296.313L190.219 260.478Z" fill="#DEE5E9"/>
<path d="M195.739 263.668L194.164 262.759L132.088 298.594L133.671 299.503L195.739 263.668Z" fill="#DEE5E9"/>
<path d="M184.692 257.288L183.117 256.379L121.041 292.214L122.624 293.123L184.692 257.288Z" fill="#DEE5E9"/>
<path d="M212.305 273.229L210.73 272.32L148.654 308.155L150.237 309.072L212.305 273.229Z" fill="#DEE5E9"/>
<path d="M217.832 276.419L216.25 275.51L154.181 311.345L155.764 312.262L217.832 276.419Z" fill="#DEE5E9"/>
<path d="M201.266 266.857L199.683 265.94L137.615 301.784L139.19 302.693L201.266 266.857Z" fill="#DEE5E9"/>
<path d="M206.785 270.047L205.203 269.13L143.134 304.965L144.717 305.883L206.785 270.047Z" fill="#DEE5E9"/>
<path d="M226.671 324.689L216.939 330.306C210.608 333.958 200.308 333.958 193.977 330.306L44.1677 243.814C37.8367 240.162 37.8367 234.212 44.1677 230.552L53.8996 224.935L52.1626 223.928L42.4307 229.545C35.1582 233.741 35.1582 240.616 42.4307 244.813L192.24 331.304C199.513 335.5 211.412 335.5 218.685 331.304L228.416 325.687L226.671 324.689Z" fill="#687579"/>
<path d="M218.685 331.312C211.412 335.508 199.513 335.508 192.24 331.312L42.4308 244.821C39.0299 242.857 37.2199 240.316 37.0007 237.727V272.166C37.228 274.747 39.038 277.287 42.4308 279.252L192.24 365.743C199.513 369.948 211.412 369.948 218.685 365.743L228.417 360.126V325.695L218.685 331.312Z" fill="url(#paint58_linear_4951_1656)"/>
<path opacity="0.1" d="M435.611 346.255C391.927 321.037 321.101 321.037 277.417 346.255C233.733 371.474 233.733 412.374 277.417 437.592C321.101 462.811 391.935 462.811 435.619 437.592C479.295 412.374 479.295 371.482 435.611 346.255ZM414.199 430.092C382.942 448.136 332.261 448.136 301.004 430.092C269.747 412.049 269.747 382.78 301.004 364.737C332.261 346.693 382.942 346.693 414.199 364.737C445.457 382.78 445.457 412.041 414.199 430.092Z" fill="black"/>
<path d="M468.127 389.322C467.859 374.404 457.867 359.534 438.16 348.154C398.193 325.079 333.39 325.079 293.415 348.154C273.456 359.68 263.465 374.777 263.44 389.882L263.448 396.976C263.732 411.878 273.716 426.732 293.415 438.103C333.39 461.179 398.193 461.179 438.16 438.103C458.095 426.594 468.086 411.513 468.135 396.432L468.127 389.322ZM436.967 431.034C397.658 453.728 333.925 453.728 294.616 431.034C255.307 408.34 255.307 371.547 294.616 348.852C333.925 326.158 397.658 326.158 436.959 348.852C476.268 371.547 476.268 408.34 436.967 431.034Z" fill="#2E383B"/>
<path d="M304.161 360.557C338.195 340.906 393.38 340.906 427.413 360.557C442.494 369.266 450.879 382.959 452.599 394.338C454.75 380.037 446.366 365.313 427.413 354.372C393.38 334.721 338.195 334.721 304.161 354.372C285.209 365.313 276.824 380.045 278.975 394.338C280.696 382.951 289.081 369.258 304.161 360.557Z" fill="#2E383B"/>
<path d="M438.038 348.901C398.218 325.915 333.666 325.915 293.845 348.901C254.033 371.888 254.033 409.167 293.845 432.154C333.666 455.14 398.218 455.14 438.038 432.154C477.858 409.159 477.858 371.888 438.038 348.901ZM427.032 425.799C393.299 445.279 338.592 445.279 304.851 425.799C271.118 406.319 271.118 374.737 304.851 355.256C338.592 335.776 393.291 335.776 427.024 355.256C460.773 374.737 460.773 406.319 427.032 425.799Z" fill="#344145"/>
<path d="M302.53 351.466C337.554 331.247 394.33 331.247 429.353 351.466C446.747 361.514 455.497 374.655 455.611 387.821V365.321C455.968 351.807 447.21 334.153 429.353 323.837C394.33 303.618 337.554 303.618 302.53 323.837C285.307 333.78 276.557 350.841 276.273 363.876V387.91C276.354 374.712 285.096 361.531 302.53 351.466Z" fill="#BA531C"/>
<path d="M336.45 311.54C335.849 311.662 335.248 311.8 334.648 311.93V339.559C335.248 339.429 335.841 339.291 336.45 339.169V311.54Z" fill="#942D00"/>
<path d="M331.855 312.546C331.255 312.693 330.654 312.847 330.053 312.993V340.622C330.654 340.468 331.247 340.314 331.855 340.168V312.546Z" fill="#942D00"/>
<path d="M341.044 310.704C340.443 310.801 339.842 310.915 339.242 311.02V338.65C339.842 338.544 340.435 338.431 341.044 338.333V310.704Z" fill="#942D00"/>
<path d="M327.27 313.731C326.669 313.894 326.068 314.072 325.468 314.243V341.872C326.068 341.702 326.661 341.523 327.27 341.361V313.731Z" fill="#942D00"/>
<path d="M322.676 315.103C322.075 315.298 321.474 315.485 320.874 315.679V343.309C321.466 343.106 322.075 342.919 322.676 342.732V315.103Z" fill="#942D00"/>
<path d="M359.403 308.821C358.803 308.845 358.202 308.861 357.602 308.894V336.523C358.202 336.491 358.803 336.474 359.403 336.45V308.821Z" fill="#942D00"/>
<path d="M354.818 309.089C354.217 309.129 353.616 309.162 353.016 309.21V336.84C353.616 336.791 354.217 336.758 354.818 336.71V309.089Z" fill="#942D00"/>
<path d="M350.224 309.478C349.623 309.543 349.023 309.6 348.422 309.665V337.294C349.023 337.221 349.623 337.164 350.224 337.107V309.478Z" fill="#942D00"/>
<path d="M345.629 310.022C345.029 310.103 344.428 310.184 343.827 310.274V337.903C344.428 337.814 345.029 337.733 345.629 337.651V310.022Z" fill="#942D00"/>
<path d="M285.947 338.495C285.314 339.331 284.714 340.176 284.146 341.028V366.855C284.714 366.125 285.314 365.402 285.947 364.68V338.495Z" fill="#942D00"/>
<path d="M295.128 328.975C294.519 329.47 293.91 329.973 293.326 330.492V357.7C293.91 357.237 294.511 356.782 295.128 356.336V328.975Z" fill="#942D00"/>
<path d="M363.997 308.699C363.397 308.707 362.796 308.707 362.196 308.723V336.353C362.796 336.336 363.397 336.336 363.997 336.328V308.699Z" fill="#942D00"/>
<path d="M290.534 360.062V333.155C289.917 333.788 289.308 334.413 288.732 335.062V361.717C289.308 361.157 289.925 360.605 290.534 360.062Z" fill="#942D00"/>
<path d="M281.353 345.703C280.68 346.986 280.095 348.268 279.552 349.55V374.217C280.095 373.089 280.68 371.961 281.353 370.857V345.703Z" fill="#942D00"/>
<path d="M313.496 318.455C312.887 318.707 312.294 318.975 311.694 319.235V346.864C312.294 346.604 312.887 346.336 313.496 346.085V318.455Z" fill="#942D00"/>
<path d="M308.901 320.501C308.293 320.793 307.7 321.093 307.099 321.394V349.023C307.692 348.722 308.293 348.422 308.901 348.13V320.501Z" fill="#942D00"/>
<path d="M304.308 350.492V322.863C303.715 323.187 303.114 323.504 302.53 323.837C302.522 323.845 302.514 323.845 302.506 323.853V351.482C302.514 351.482 302.522 351.474 302.53 351.466C303.114 351.133 303.715 350.817 304.308 350.492Z" fill="#942D00"/>
<path d="M299.722 325.582C299.105 325.988 298.512 326.418 297.92 326.84V354.364C298.512 353.966 299.105 353.568 299.722 353.179V325.582Z" fill="#942D00"/>
<path d="M318.081 316.662C317.481 316.881 316.872 317.1 316.28 317.327V344.956C316.872 344.729 317.481 344.51 318.081 344.291V316.662Z" fill="#942D00"/>
<path d="M432.868 326.036C432.275 325.639 431.683 325.241 431.066 324.859V352.497C431.674 352.87 432.283 353.235 432.868 353.617V326.036Z" fill="#942D00"/>
<path d="M423.68 320.85C423.079 320.558 422.486 320.274 421.878 319.989V347.619C422.486 347.895 423.079 348.187 423.68 348.479V320.85Z" fill="#942D00"/>
<path d="M428.274 323.244C427.673 322.911 427.08 322.579 426.472 322.254V349.883C427.08 350.208 427.673 350.541 428.274 350.873V323.244Z" fill="#942D00"/>
<path d="M419.093 318.739C418.501 318.488 417.892 318.252 417.292 318.009V345.638C417.892 345.882 418.501 346.117 419.093 346.369V318.739Z" fill="#942D00"/>
<path d="M368.592 308.707C367.991 308.699 367.39 308.683 366.79 308.683V336.312C367.39 336.32 367.991 336.328 368.592 336.336V308.707Z" fill="#942D00"/>
<path d="M414.5 316.921C413.907 316.702 413.298 316.483 412.698 316.272V343.901C413.298 344.112 413.899 344.331 414.5 344.55V316.921Z" fill="#942D00"/>
<path d="M437.454 329.502C436.869 329.007 436.269 328.528 435.652 328.049V355.508C436.269 355.946 436.861 356.401 437.454 356.847V329.502Z" fill="#942D00"/>
<path d="M446.642 365.492V339.307C446.073 338.52 445.465 337.741 444.84 336.97V363.454C445.465 364.128 446.065 364.81 446.642 365.492Z" fill="#942D00"/>
<path d="M442.047 333.804C441.471 333.195 440.862 332.595 440.246 332.002V359.096C440.871 359.623 441.463 360.159 442.047 360.703V333.804Z" fill="#942D00"/>
<path d="M451.236 346.945C450.684 345.817 450.083 344.697 449.434 343.576V369.177C450.091 370.142 450.684 371.116 451.236 372.099V346.945Z" fill="#942D00"/>
<path d="M409.906 315.322C409.305 315.128 408.713 314.933 408.104 314.746V342.375C408.713 342.562 409.305 342.757 409.906 342.952V315.322Z" fill="#942D00"/>
<path d="M386.952 310.111C386.351 310.03 385.75 309.957 385.15 309.884V337.513C385.75 337.586 386.351 337.659 386.952 337.741V310.111Z" fill="#942D00"/>
<path d="M382.358 309.551C381.757 309.486 381.156 309.43 380.556 309.373V337.002C381.156 337.059 381.757 337.116 382.358 337.181V309.551Z" fill="#942D00"/>
<path d="M373.178 308.853C372.577 308.829 371.976 308.797 371.376 308.78V336.409C371.976 336.434 372.577 336.458 373.178 336.483V308.853Z" fill="#942D00"/>
<path d="M377.772 309.129C377.171 309.081 376.57 309.04 375.97 309.008V336.637C376.57 336.677 377.171 336.718 377.772 336.759V309.129Z" fill="#942D00"/>
<path d="M405.32 313.934C404.719 313.764 404.127 313.585 403.518 313.423V341.052C404.127 341.215 404.719 341.393 405.32 341.564V313.934Z" fill="#942D00"/>
<path d="M391.546 310.818C390.945 310.72 390.344 310.631 389.744 310.533V338.163C390.344 338.26 390.945 338.341 391.546 338.447V310.818Z" fill="#942D00"/>
<path d="M400.725 312.725C400.125 312.579 399.524 312.433 398.924 312.295V339.924C399.524 340.062 400.125 340.208 400.725 340.354V312.725Z" fill="#942D00"/>
<path d="M396.131 311.686C395.531 311.564 394.93 311.451 394.33 311.337V338.966C394.93 339.08 395.531 339.193 396.131 339.315V311.686Z" fill="#942D00"/>
<path d="M394.679 409.265L394.338 438.112L392 438.55L392.341 409.703L394.679 409.265Z" fill="#BA531C"/>
<path d="M340.192 409.703L339.843 438.55L337.505 438.112L337.846 409.265L340.192 409.703Z" fill="#BA531C"/>
<path d="M385.807 410.718L385.466 439.564L383.064 439.865L383.405 411.01L385.807 410.718Z" fill="#BA531C"/>
<path d="M349.144 411.01L348.803 439.857L346.401 439.564L346.742 410.718L349.144 411.01Z" fill="#BA531C"/>
<path d="M376.716 411.627L376.376 440.474L373.932 440.612L374.273 411.765L376.716 411.627Z" fill="#BA531C"/>
<path d="M358.275 411.773L357.935 440.62L355.5 440.474L355.84 411.627L358.275 411.773Z" fill="#BA531C"/>
<path d="M367.504 411.976L367.163 440.823H364.712L365.053 411.968L367.504 411.976Z" fill="#BA531C"/>
<path d="M466.414 370.508L466.073 399.354L452.202 399.679L452.543 370.832L466.414 370.508Z" fill="url(#paint59_linear_4951_1656)"/>
<path d="M464.166 376.53L463.825 405.385L449.969 404.866L450.31 376.019L464.166 376.53Z" fill="url(#paint60_linear_4951_1656)"/>
<path d="M460.838 382.391L460.497 411.237L446.82 409.882L447.161 381.027L460.838 382.391Z" fill="url(#paint61_linear_4951_1656)"/>
<path d="M456.471 388.007L456.13 416.854L442.77 414.679L443.111 385.832L456.471 388.007Z" fill="url(#paint62_linear_4951_1656)"/>
<path d="M451.122 393.324L450.781 422.178L437.868 419.2L438.209 390.353L451.122 393.324Z" fill="url(#paint63_linear_4951_1656)"/>
<path d="M444.832 398.291L444.491 427.138L432.17 423.396L432.519 394.549L444.832 398.291Z" fill="url(#paint64_linear_4951_1656)"/>
<path d="M437.681 402.844L437.34 431.691L425.758 427.227L426.099 398.38L437.681 402.844Z" fill="url(#paint65_linear_4951_1656)"/>
<path d="M429.751 406.943L429.41 435.79L418.696 430.652L419.037 401.806L429.751 406.943Z" fill="url(#paint66_linear_4951_1656)"/>
<path d="M421.115 410.539L420.774 439.386L411.042 433.631L411.383 404.784L421.115 410.539Z" fill="url(#paint67_linear_4951_1656)"/>
<path d="M411.878 413.583L411.537 442.43L402.901 436.131L403.242 407.284L411.878 413.583Z" fill="url(#paint68_linear_4951_1656)"/>
<path d="M402.13 416.059L401.789 444.905L394.338 438.112L394.679 409.265L402.13 416.059Z" fill="url(#paint69_linear_4951_1656)"/>
<path d="M392 417.925L391.659 446.772L385.466 439.564L385.807 410.718L392 417.925Z" fill="url(#paint70_linear_4951_1656)"/>
<path d="M349.745 419.045L349.404 447.892L348.803 439.857L349.144 411.01L349.745 419.045Z" fill="url(#paint71_linear_4951_1656)"/>
<path d="M381.57 419.167L381.229 448.014L376.375 440.474L376.716 411.627L381.57 419.167Z" fill="url(#paint72_linear_4951_1656)"/>
<path d="M360.329 419.735L359.988 448.582L357.934 440.62L358.275 411.773L360.329 419.735Z" fill="url(#paint73_linear_4951_1656)"/>
<path d="M370.978 419.776L370.637 448.623L367.163 440.822L367.504 411.976L370.978 419.776Z" fill="url(#paint74_linear_4951_1656)"/>
<path d="M278.213 365.54L277.872 394.387L264.122 393.234L264.463 364.38L278.213 365.54Z" fill="url(#paint75_linear_4951_1656)"/>
<path d="M279.552 370.832L279.211 399.679L265.331 399.362L265.68 370.508L279.552 370.832Z" fill="url(#paint76_linear_4951_1656)"/>
<path d="M281.832 376.019L281.492 404.866L267.653 405.385L267.993 376.53L281.832 376.019Z" fill="url(#paint77_linear_4951_1656)"/>
<path d="M285.047 381.035L284.706 409.882L271.046 411.237L271.387 382.39L285.047 381.035Z" fill="url(#paint78_linear_4951_1656)"/>
<path d="M289.146 385.832L288.805 414.679L275.477 416.854L275.818 388.007L289.146 385.832Z" fill="url(#paint79_linear_4951_1656)"/>
<path d="M294.105 390.353L293.764 419.2L280.883 422.178L281.224 393.324L294.105 390.353Z" fill="url(#paint80_linear_4951_1656)"/>
<path d="M299.852 394.549L299.511 423.404L287.222 427.138L287.563 398.291L299.852 394.549Z" fill="url(#paint81_linear_4951_1656)"/>
<path d="M306.304 398.38L305.964 427.227L294.43 431.699L294.771 402.844L306.304 398.38Z" fill="url(#paint82_linear_4951_1656)"/>
<path d="M313.406 401.806L313.065 430.652L302.408 435.79L302.757 406.943L313.406 401.806Z" fill="url(#paint83_linear_4951_1656)"/>
<path d="M321.077 404.784L320.736 433.631L311.085 439.386L311.434 410.539L321.077 404.784Z" fill="url(#paint84_linear_4951_1656)"/>
<path d="M329.258 407.276L328.917 436.131L320.362 442.438L320.703 413.591L329.258 407.276Z" fill="url(#paint85_linear_4951_1656)"/>
<path d="M337.846 409.265L337.505 438.112L330.127 444.905L330.476 416.059L337.846 409.265Z" fill="url(#paint86_linear_4951_1656)"/>
<path d="M346.742 410.718L346.401 439.564L340.289 446.772L340.63 417.925L346.742 410.718Z" fill="url(#paint87_linear_4951_1656)"/>
<path d="M383.405 411.01L383.064 439.865L382.552 447.892L382.893 419.045L383.405 411.01Z" fill="url(#paint88_linear_4951_1656)"/>
<path d="M355.841 411.627L355.5 440.474L350.719 448.022L351.068 419.167L355.841 411.627Z" fill="url(#paint89_linear_4951_1656)"/>
<path d="M374.273 411.765L373.933 440.611L371.968 448.574L372.309 419.727L374.273 411.765Z" fill="url(#paint90_linear_4951_1656)"/>
<path d="M365.053 411.968L364.712 440.823L361.319 448.615L361.66 419.768L365.053 411.968Z" fill="url(#paint91_linear_4951_1656)"/>
<path d="M264.463 364.38L264.122 393.234L264.041 392.463L264.382 363.608L264.463 364.38Z" fill="#FE9E0F"/>
<path d="M466.609 369.745L466.268 398.591L466.073 399.354L466.414 370.508L466.609 369.745Z" fill="#FE9E0F"/>
<path d="M265.68 370.508L265.331 399.363L265.128 398.6L265.469 369.753L265.68 370.508Z" fill="#FE9E0F"/>
<path d="M464.498 375.784L464.157 404.638L463.825 405.385L464.166 376.53L464.498 375.784Z" fill="#FE9E0F"/>
<path d="M267.994 376.53L267.653 405.385L267.304 404.638L267.645 375.792L267.994 376.53Z" fill="#FE9E0F"/>
<path d="M461.317 381.668L460.976 410.515L460.497 411.237L460.838 382.39L461.317 381.668Z" fill="#FE9E0F"/>
<path d="M271.386 382.39L271.045 411.237L270.558 410.515L270.907 381.668L271.386 382.39Z" fill="#FE9E0F"/>
<path d="M457.08 387.317L456.739 416.164L456.13 416.854L456.471 388.007L457.08 387.317Z" fill="#FE9E0F"/>
<path d="M275.818 388.007L275.477 416.854L274.86 416.164L275.201 387.317L275.818 388.007Z" fill="#FE9E0F"/>
<path d="M451.845 392.674L451.504 421.529L450.781 422.178L451.122 393.324L451.845 392.674Z" fill="#FE9E0F"/>
<path d="M281.224 393.324L280.883 422.178L280.161 421.529L280.502 392.674L281.224 393.324Z" fill="#FE9E0F"/>
<path d="M445.668 397.69L445.327 426.537L444.491 427.138L444.832 398.291L445.668 397.69Z" fill="#FE9E0F"/>
<path d="M287.563 398.291L287.222 427.138L286.386 426.545L286.727 397.69L287.563 398.291Z" fill="#FE9E0F"/>
<path d="M438.623 402.301L438.282 431.147L437.34 431.691L437.681 402.845L438.623 402.301Z" fill="#FE9E0F"/>
<path d="M294.771 402.845L294.43 431.699L293.48 431.147L293.821 402.301L294.771 402.845Z" fill="#FE9E0F"/>
<path d="M430.782 406.456L430.441 435.303L429.41 435.79L429.751 406.943L430.782 406.456Z" fill="#FE9E0F"/>
<path d="M302.757 406.943L302.408 435.79L301.369 435.311L301.71 406.456L302.757 406.943Z" fill="#FE9E0F"/>
<path d="M422.235 410.117L421.894 438.964L420.774 439.386L421.115 410.539L422.235 410.117Z" fill="#FE9E0F"/>
<path d="M311.434 410.539L311.085 439.386L309.965 438.964L310.306 410.117L311.434 410.539Z" fill="#FE9E0F"/>
<path d="M413.055 413.234L412.714 442.081L411.537 442.43L411.878 413.583L413.055 413.234Z" fill="#FE9E0F"/>
<path d="M320.703 413.591L320.362 442.438L319.161 442.081L319.502 413.234L320.703 413.591Z" fill="#FE9E0F"/>
<path d="M403.372 415.783L403.031 444.629L401.789 444.905L402.13 416.059L403.372 415.783Z" fill="#FE9E0F"/>
<path d="M330.476 416.059L330.127 444.905L328.877 444.629L329.218 415.783L330.476 416.059Z" fill="#FE9E0F"/>
<path d="M393.283 417.722L392.942 446.577L391.659 446.772L392 417.925L393.283 417.722Z" fill="#FE9E0F"/>
<path d="M340.63 417.925L340.289 446.772L338.998 446.577L339.339 417.722L340.63 417.925Z" fill="#FE9E0F"/>
<path d="M382.893 419.045L382.552 447.892L381.229 448.014L381.57 419.167L382.893 419.045Z" fill="#FE9E0F"/>
<path d="M351.067 419.167L350.718 448.022L349.404 447.892L349.744 419.045L351.067 419.167Z" fill="#FE9E0F"/>
<path d="M372.309 419.727L371.968 448.574L370.637 448.623L370.978 419.776L372.309 419.727Z" fill="#FE9E0F"/>
<path d="M361.66 419.768L361.319 448.615L359.988 448.582L360.329 419.735L361.66 419.768Z" fill="#FE9E0F"/>
<path d="M304.161 326.475C338.195 306.824 393.38 306.824 427.413 326.475C442.494 335.184 450.879 346.288 452.599 357.667C454.75 343.374 446.366 328.642 427.413 317.701C393.38 298.05 338.195 298.05 304.161 317.701C285.209 328.642 276.824 343.374 278.975 357.667C280.696 346.288 289.081 335.184 304.161 326.475Z" fill="#2E383B"/>
<path d="M468.127 355.281C467.859 340.362 457.867 325.493 438.16 314.113C398.194 291.037 333.39 291.037 293.415 314.113C273.456 325.639 263.465 340.736 263.44 355.841L263.449 362.691C263.733 377.594 273.716 392.447 293.415 403.819C333.39 426.894 398.194 426.894 438.16 403.819C458.095 392.309 468.086 377.236 468.135 362.147L468.127 355.281ZM436.967 396.992C397.658 419.687 333.926 419.687 294.617 396.992C255.308 374.298 255.308 337.505 294.617 314.803C333.926 292.109 397.658 292.109 436.959 314.803C476.268 337.505 476.268 374.298 436.967 396.992Z" fill="#2E383B"/>
<path d="M438.16 314.121C398.193 291.046 333.39 291.046 293.415 314.121C253.44 337.197 253.44 374.615 293.415 397.691C333.39 420.767 398.193 420.767 438.16 397.691C478.134 374.615 478.134 337.197 438.16 314.121ZM427.413 391.482C393.38 411.132 338.195 411.132 304.153 391.482C270.12 371.831 270.12 339.965 304.153 320.315C338.186 300.664 393.372 300.664 427.405 320.315C461.455 339.973 461.455 371.831 427.413 391.482Z" fill="#4E5B5F"/>
<path d="M433.03 317.076C395.896 295.631 335.679 295.631 298.545 317.076C261.411 338.52 261.411 373.284 298.545 394.72C335.687 416.164 395.896 416.164 433.038 394.72C470.172 373.284 470.172 338.52 433.03 317.076ZM427.413 391.481C393.38 411.132 338.195 411.132 304.153 391.481C270.12 371.831 270.12 339.965 304.153 320.314C338.187 300.664 393.372 300.664 427.405 320.314C461.455 339.973 461.455 371.831 427.413 391.481Z" fill="#344145"/>
<path d="M428.931 319.446C394.062 299.316 337.521 299.316 302.652 319.446C267.782 339.575 267.782 372.22 302.652 392.358C337.521 412.487 394.062 412.487 428.931 392.358C463.8 372.22 463.8 339.583 428.931 319.446ZM427.413 391.481C393.38 411.132 338.195 411.132 304.153 391.481C270.12 371.831 270.12 339.965 304.153 320.314C338.187 300.664 393.372 300.664 427.405 320.314C461.455 339.973 461.455 371.831 427.413 391.481Z" fill="#4E5B5F"/>
<path d="M436.958 314.811C397.649 292.117 333.925 292.117 294.616 314.811C255.307 337.505 255.307 374.306 294.616 397.001C333.925 419.695 397.657 419.695 436.966 397.001C476.267 374.298 476.268 337.505 436.958 314.811ZM434.734 395.71C396.659 417.698 334.924 417.698 296.84 395.71C258.765 373.722 258.765 338.082 296.84 316.093C334.915 294.105 396.651 294.105 434.726 316.093C472.81 338.082 472.81 373.722 434.734 395.71Z" fill="#344145"/>
<path d="M294.617 315.972C333.926 293.277 397.658 293.277 436.959 315.972C456.358 327.173 466.179 341.807 466.431 356.482C466.69 341.418 456.869 326.304 436.959 314.811C397.65 292.117 333.926 292.117 294.617 314.811C274.706 326.304 264.893 341.418 265.145 356.482C265.396 341.807 275.218 327.173 294.617 315.972Z" fill="#151F22"/>
<path d="M434.735 316.093C396.659 294.105 334.924 294.105 296.849 316.093C258.773 338.073 258.773 373.722 296.849 395.71C334.932 417.698 396.659 417.698 434.743 395.71C472.81 373.722 472.81 338.082 434.735 316.093ZM433.038 394.728C395.896 416.172 335.687 416.172 298.545 394.728C261.411 373.284 261.411 338.52 298.545 317.084C335.679 295.639 395.896 295.639 433.03 317.084C470.172 338.52 470.172 373.284 433.038 394.728Z" fill="#4E5B5F"/>
<path d="M298.545 318.236C335.679 296.792 395.896 296.792 433.03 318.236C451.341 328.812 460.619 342.619 460.87 356.482C461.13 342.237 451.853 327.944 433.03 317.076C395.896 295.631 335.679 295.631 298.545 317.076C279.722 327.944 270.445 342.237 270.705 356.482C270.956 342.627 280.234 328.812 298.545 318.236Z" fill="#151F22"/>
<defs>
<linearGradient id="paint0_linear_4951_1656" x1="405.326" y1="200.68" x2="224.49" y2="200.68" gradientUnits="userSpaceOnUse">
<stop offset="0.0026738" stop-color="#9EA5A9"/>
<stop offset="0.2219" stop-color="#DEE5E9"/>
<stop offset="0.4118" stop-color="#D1D8DC"/>
<stop offset="0.8396" stop-color="#9EA5A9"/>
<stop offset="1" stop-color="#6F7980"/>
</linearGradient>
<linearGradient id="paint1_linear_4951_1656" x1="278.502" y1="146.012" x2="407.433" y2="315.532" gradientUnits="userSpaceOnUse">
<stop stop-color="#C5CCD0"/>
<stop offset="1" stop-color="#A8AFB3"/>
</linearGradient>
<linearGradient id="paint2_linear_4951_1656" x1="390.369" y1="137.26" x2="433.244" y2="137.26" gradientUnits="userSpaceOnUse">
<stop stop-color="#C95A1E"/>
<stop offset="1" stop-color="#FE912A"/>
</linearGradient>
<linearGradient id="paint3_linear_4951_1656" x1="388.422" y1="142.138" x2="410.409" y2="142.138" gradientUnits="userSpaceOnUse">
<stop stop-color="#C95A1E"/>
<stop offset="1" stop-color="#FE912A"/>
</linearGradient>
<linearGradient id="paint4_linear_4951_1656" x1="385.682" y1="146.869" x2="408.776" y2="146.869" gradientUnits="userSpaceOnUse">
<stop stop-color="#C95A1E"/>
<stop offset="1" stop-color="#FE912A"/>
</linearGradient>
<linearGradient id="paint5_linear_4951_1656" x1="382.158" y1="151.404" x2="401.112" y2="151.404" gradientUnits="userSpaceOnUse">
<stop stop-color="#C95A1E"/>
<stop offset="1" stop-color="#FE912A"/>
</linearGradient>
<linearGradient id="paint6_linear_4951_1656" x1="377.888" y1="155.691" x2="396.994" y2="155.691" gradientUnits="userSpaceOnUse">
<stop stop-color="#C95A1E"/>
<stop offset="1" stop-color="#FE912A"/>
</linearGradient>
<linearGradient id="paint7_linear_4951_1656" x1="372.931" y1="159.677" x2="389.599" y2="159.677" gradientUnits="userSpaceOnUse">
<stop stop-color="#C95A1E"/>
<stop offset="1" stop-color="#FE912A"/>
</linearGradient>
<linearGradient id="paint8_linear_4951_1656" x1="367.35" y1="163.328" x2="382.009" y2="163.328" gradientUnits="userSpaceOnUse">
<stop stop-color="#C95A1E"/>
<stop offset="1" stop-color="#FE912A"/>
</linearGradient>
<linearGradient id="paint9_linear_4951_1656" x1="361.201" y1="166.604" x2="373.776" y2="166.604" gradientUnits="userSpaceOnUse">
<stop stop-color="#C95A1E"/>
<stop offset="1" stop-color="#FE912A"/>
</linearGradient>
<linearGradient id="paint10_linear_4951_1656" x1="354.538" y1="169.463" x2="365.218" y2="169.463" gradientUnits="userSpaceOnUse">
<stop stop-color="#C95A1E"/>
<stop offset="1" stop-color="#FE912A"/>
</linearGradient>
<linearGradient id="paint11_linear_4951_1656" x1="347.448" y1="171.877" x2="355.263" y2="171.877" gradientUnits="userSpaceOnUse">
<stop stop-color="#C95A1E"/>
<stop offset="1" stop-color="#FE912A"/>
</linearGradient>
<linearGradient id="paint12_linear_4951_1656" x1="339.991" y1="173.816" x2="346.78" y2="173.816" gradientUnits="userSpaceOnUse">
<stop stop-color="#C95A1E"/>
<stop offset="1" stop-color="#FE912A"/>
</linearGradient>
<linearGradient id="paint13_linear_4951_1656" x1="332.267" y1="175.262" x2="337.956" y2="175.262" gradientUnits="userSpaceOnUse">
<stop stop-color="#C95A1E"/>
<stop offset="1" stop-color="#FE912A"/>
</linearGradient>
<linearGradient id="paint14_linear_4951_1656" x1="300.348" y1="175.878" x2="301.173" y2="175.878" gradientUnits="userSpaceOnUse">
<stop stop-color="#C95A1E"/>
<stop offset="1" stop-color="#FE912A"/>
</linearGradient>
<linearGradient id="paint15_linear_4951_1656" x1="324.355" y1="176.196" x2="328.879" y2="176.196" gradientUnits="userSpaceOnUse">
<stop stop-color="#C95A1E"/>
<stop offset="1" stop-color="#FE912A"/>
</linearGradient>
<linearGradient id="paint16_linear_4951_1656" x1="308.304" y1="176.506" x2="310.387" y2="176.506" gradientUnits="userSpaceOnUse">
<stop stop-color="#C95A1E"/>
<stop offset="1" stop-color="#FE912A"/>
</linearGradient>
<linearGradient id="paint17_linear_4951_1656" x1="316.334" y1="176.612" x2="319.654" y2="176.612" gradientUnits="userSpaceOnUse">
<stop stop-color="#C95A1E"/>
<stop offset="1" stop-color="#FE912A"/>
</linearGradient>
<linearGradient id="paint18_linear_4951_1656" x1="226.627" y1="132.29" x2="238.897" y2="132.29" gradientUnits="userSpaceOnUse">
<stop stop-color="#C95A1E"/>
<stop offset="1" stop-color="#FE912A"/>
</linearGradient>
<linearGradient id="paint19_linear_4951_1656" x1="227.685" y1="137.261" x2="240.064" y2="137.261" gradientUnits="userSpaceOnUse">
<stop stop-color="#C95A1E"/>
<stop offset="1" stop-color="#FE912A"/>
</linearGradient>
<linearGradient id="paint20_linear_4951_1656" x1="229.702" y1="142.138" x2="242.049" y2="142.138" gradientUnits="userSpaceOnUse">
<stop stop-color="#C95A1E"/>
<stop offset="1" stop-color="#FE912A"/>
</linearGradient>
<linearGradient id="paint21_linear_4951_1656" x1="240.501" y1="146.872" x2="217.097" y2="146.872" gradientUnits="userSpaceOnUse">
<stop stop-color="#C95A1E"/>
<stop offset="1" stop-color="#FE912A"/>
</linearGradient>
<linearGradient id="paint22_linear_4951_1656" x1="248.245" y1="151.406" x2="220.469" y2="151.406" gradientUnits="userSpaceOnUse">
<stop stop-color="#C95A1E"/>
<stop offset="1" stop-color="#FE912A"/>
</linearGradient>
<linearGradient id="paint23_linear_4951_1656" x1="252.592" y1="155.689" x2="227.1" y2="155.689" gradientUnits="userSpaceOnUse">
<stop stop-color="#C95A1E"/>
<stop offset="1" stop-color="#FE912A"/>
</linearGradient>
<linearGradient id="paint24_linear_4951_1656" x1="257.618" y1="159.679" x2="236.519" y2="159.679" gradientUnits="userSpaceOnUse">
<stop stop-color="#C95A1E"/>
<stop offset="1" stop-color="#FE912A"/>
</linearGradient>
<linearGradient id="paint25_linear_4951_1656" x1="263.459" y1="163.328" x2="243.489" y2="163.328" gradientUnits="userSpaceOnUse">
<stop stop-color="#C95A1E"/>
<stop offset="1" stop-color="#FE912A"/>
</linearGradient>
<linearGradient id="paint26_linear_4951_1656" x1="269.707" y1="166.604" x2="257.272" y2="166.604" gradientUnits="userSpaceOnUse">
<stop stop-color="#C95A1E"/>
<stop offset="1" stop-color="#FE912A"/>
</linearGradient>
<linearGradient id="paint27_linear_4951_1656" x1="276.093" y1="169.463" x2="267.481" y2="169.463" gradientUnits="userSpaceOnUse">
<stop stop-color="#C95A1E"/>
<stop offset="1" stop-color="#FE912A"/>
</linearGradient>
<linearGradient id="paint28_linear_4951_1656" x1="283.292" y1="171.877" x2="275.258" y2="171.877" gradientUnits="userSpaceOnUse">
<stop stop-color="#C95A1E"/>
<stop offset="1" stop-color="#FE912A"/>
</linearGradient>
<linearGradient id="paint29_linear_4951_1656" x1="290.899" y1="173.815" x2="284.31" y2="173.815" gradientUnits="userSpaceOnUse">
<stop stop-color="#C95A1E"/>
<stop offset="1" stop-color="#FE912A"/>
</linearGradient>
<linearGradient id="paint30_linear_4951_1656" x1="298.506" y1="175.262" x2="292.641" y2="175.262" gradientUnits="userSpaceOnUse">
<stop stop-color="#C95A1E"/>
<stop offset="1" stop-color="#FE912A"/>
</linearGradient>
<linearGradient id="paint31_linear_4951_1656" x1="329.732" y1="175.878" x2="330.472" y2="175.878" gradientUnits="userSpaceOnUse">
<stop stop-color="#C95A1E"/>
<stop offset="1" stop-color="#FE912A"/>
</linearGradient>
<linearGradient id="paint32_linear_4951_1656" x1="306.793" y1="176.198" x2="302.308" y2="176.198" gradientUnits="userSpaceOnUse">
<stop stop-color="#C95A1E"/>
<stop offset="1" stop-color="#FE912A"/>
</linearGradient>
<linearGradient id="paint33_linear_4951_1656" x1="322.823" y1="176.503" x2="320.244" y2="176.503" gradientUnits="userSpaceOnUse">
<stop stop-color="#C95A1E"/>
<stop offset="1" stop-color="#FE912A"/>
</linearGradient>
<linearGradient id="paint34_linear_4951_1656" x1="314.398" y1="176.61" x2="311.127" y2="176.61" gradientUnits="userSpaceOnUse">
<stop stop-color="#C95A1E"/>
<stop offset="1" stop-color="#FE912A"/>
</linearGradient>
<linearGradient id="paint35_linear_4951_1656" x1="403.901" y1="57.7133" x2="225.922" y2="57.7133" gradientUnits="userSpaceOnUse">
<stop offset="0.0026738" stop-color="#9EA5A9"/>
<stop offset="0.2219" stop-color="#DEE5E9"/>
<stop offset="0.4118" stop-color="#D1D8DC"/>
<stop offset="0.8396" stop-color="#9EA5A9"/>
<stop offset="1" stop-color="#6F7980"/>
</linearGradient>
<linearGradient id="paint36_linear_4951_1656" x1="279.08" y1="3.90892" x2="405.973" y2="170.75" gradientUnits="userSpaceOnUse">
<stop stop-color="#DEE5E9"/>
<stop offset="1" stop-color="#C1C8CC"/>
</linearGradient>
<linearGradient id="paint37_linear_4951_1656" x1="261.141" y1="51.3204" x2="371.316" y2="51.3204" gradientUnits="userSpaceOnUse">
<stop offset="0.0026738" stop-color="#9EA5A9"/>
<stop offset="0.2219" stop-color="#DEE5E9"/>
<stop offset="0.4118" stop-color="#D1D8DC"/>
<stop offset="0.8396" stop-color="#9EA5A9"/>
<stop offset="1" stop-color="#6F7980"/>
</linearGradient>
<linearGradient id="paint38_linear_4951_1656" x1="289.13" y1="28.9294" x2="363.09" y2="98.9418" gradientUnits="userSpaceOnUse">
<stop stop-color="#DEE5E9"/>
<stop offset="1" stop-color="#C1C8CC"/>
</linearGradient>
<linearGradient id="paint39_linear_4951_1656" x1="292.589" y1="51.27" x2="338.601" y2="51.27" gradientUnits="userSpaceOnUse">
<stop offset="0.0026738" stop-color="#9EA5A9"/>
<stop offset="0.2219" stop-color="#DEE5E9"/>
<stop offset="0.4118" stop-color="#D1D8DC"/>
<stop offset="0.8396" stop-color="#9EA5A9"/>
<stop offset="1" stop-color="#6F7980"/>
</linearGradient>
<linearGradient id="paint40_linear_4951_1656" x1="397.543" y1="148.343" x2="483.566" y2="297.339" gradientUnits="userSpaceOnUse">
<stop stop-color="#4E5B5F"/>
<stop offset="0.1283" stop-color="#5B686C"/>
<stop offset="0.1524" stop-color="#5B686C"/>
<stop offset="0.3075" stop-color="#5B686C"/>
<stop offset="0.9305" stop-color="#273438"/>
</linearGradient>
<linearGradient id="paint41_linear_4951_1656" x1="363.154" y1="168.357" x2="451.246" y2="320.938" gradientUnits="userSpaceOnUse">
<stop stop-color="#354246"/>
<stop offset="0.1283" stop-color="#424F53"/>
<stop offset="0.1524" stop-color="#424F53"/>
<stop offset="0.3075" stop-color="#424F53"/>
<stop offset="0.9305" stop-color="#0E1B1F"/>
</linearGradient>
<linearGradient id="paint42_linear_4951_1656" x1="355.836" y1="167.729" x2="448.004" y2="327.37" gradientUnits="userSpaceOnUse">
<stop stop-color="#4E5B5F"/>
<stop offset="0.1283" stop-color="#5B686C"/>
<stop offset="0.1524" stop-color="#5B686C"/>
<stop offset="0.3075" stop-color="#5B686C"/>
<stop offset="0.9305" stop-color="#273438"/>
</linearGradient>
<linearGradient id="paint43_linear_4951_1656" x1="373.696" y1="168.992" x2="424.454" y2="335.167" gradientUnits="userSpaceOnUse">
<stop stop-color="#DEE5E9"/>
<stop offset="1" stop-color="#C1C8CC"/>
</linearGradient>
<linearGradient id="paint44_linear_4951_1656" x1="424.332" y1="309.398" x2="369.096" y2="181.805" gradientUnits="userSpaceOnUse">
<stop stop-color="#DEE5E9"/>
<stop offset="1" stop-color="#C1C8CC"/>
</linearGradient>
<linearGradient id="paint45_linear_4951_1656" x1="369.717" y1="187.027" x2="426.569" y2="310.744" gradientUnits="userSpaceOnUse">
<stop stop-color="#DEE5E9"/>
<stop offset="1" stop-color="#C1C8CC"/>
</linearGradient>
<linearGradient id="paint46_linear_4951_1656" x1="351.322" y1="248.602" x2="444.705" y2="248.602" gradientUnits="userSpaceOnUse">
<stop stop-color="#DEE5E9"/>
<stop offset="1" stop-color="#C1C8CC"/>
</linearGradient>
<linearGradient id="paint47_linear_4951_1656" x1="401.908" y1="264.613" x2="382.607" y2="230.215" gradientUnits="userSpaceOnUse">
<stop stop-color="#ACB3B7"/>
<stop offset="1" stop-color="#8F969A"/>
</linearGradient>
<linearGradient id="paint48_linear_4951_1656" x1="366.624" y1="236.708" x2="359.875" y2="224.738" gradientUnits="userSpaceOnUse">
<stop stop-color="#ACB3B7"/>
<stop offset="1" stop-color="#8F969A"/>
</linearGradient>
<linearGradient id="paint49_linear_4951_1656" x1="376.055" y1="215.859" x2="369.306" y2="203.889" gradientUnits="userSpaceOnUse">
<stop stop-color="#ACB3B7"/>
<stop offset="1" stop-color="#8F969A"/>
</linearGradient>
<linearGradient id="paint50_linear_4951_1656" x1="398.827" y1="218.113" x2="392.079" y2="206.144" gradientUnits="userSpaceOnUse">
<stop stop-color="#ACB3B7"/>
<stop offset="1" stop-color="#8F969A"/>
</linearGradient>
<linearGradient id="paint51_linear_4951_1656" x1="421.598" y1="242.151" x2="414.849" y2="230.182" gradientUnits="userSpaceOnUse">
<stop stop-color="#ACB3B7"/>
<stop offset="1" stop-color="#8F969A"/>
</linearGradient>
<linearGradient id="paint52_linear_4951_1656" x1="431.03" y1="273.89" x2="424.282" y2="261.921" gradientUnits="userSpaceOnUse">
<stop stop-color="#ACB3B7"/>
<stop offset="1" stop-color="#8F969A"/>
</linearGradient>
<linearGradient id="paint53_linear_4951_1656" x1="421.597" y1="294.739" x2="414.848" y2="282.769" gradientUnits="userSpaceOnUse">
<stop stop-color="#ACB3B7"/>
<stop offset="1" stop-color="#8F969A"/>
</linearGradient>
<linearGradient id="paint54_linear_4951_1656" x1="398.827" y1="292.484" x2="392.078" y2="280.514" gradientUnits="userSpaceOnUse">
<stop stop-color="#ACB3B7"/>
<stop offset="1" stop-color="#8F969A"/>
</linearGradient>
<linearGradient id="paint55_linear_4951_1656" x1="376.054" y1="268.446" x2="369.306" y2="256.477" gradientUnits="userSpaceOnUse">
<stop stop-color="#ACB3B7"/>
<stop offset="1" stop-color="#8F969A"/>
</linearGradient>
<linearGradient id="paint56_linear_4951_1656" x1="183.613" y1="327.054" x2="227.353" y2="327.054" gradientUnits="userSpaceOnUse">
<stop stop-color="#2E383B"/>
<stop offset="1" stop-color="#414E52"/>
</linearGradient>
<linearGradient id="paint57_linear_4951_1656" x1="168.158" y1="227.643" x2="148.83" y2="227.643" gradientUnits="userSpaceOnUse">
<stop stop-color="#2E383B"/>
<stop offset="1" stop-color="#414E52"/>
</linearGradient>
<linearGradient id="paint58_linear_4951_1656" x1="192.239" y1="303.306" x2="219.005" y2="303.306" gradientUnits="userSpaceOnUse">
<stop stop-color="#2E383B"/>
<stop offset="1" stop-color="#414E52"/>
</linearGradient>
<linearGradient id="paint59_linear_4951_1656" x1="452.202" y1="385.095" x2="501.455" y2="385.095" gradientUnits="userSpaceOnUse">
<stop stop-color="#C95A1E"/>
<stop offset="1" stop-color="#FE912A"/>
</linearGradient>
<linearGradient id="paint60_linear_4951_1656" x1="449.966" y1="390.699" x2="475.221" y2="390.699" gradientUnits="userSpaceOnUse">
<stop stop-color="#C95A1E"/>
<stop offset="1" stop-color="#FE912A"/>
</linearGradient>
<linearGradient id="paint61_linear_4951_1656" x1="446.818" y1="396.131" x2="473.344" y2="396.131" gradientUnits="userSpaceOnUse">
<stop stop-color="#C95A1E"/>
<stop offset="1" stop-color="#FE912A"/>
</linearGradient>
<linearGradient id="paint62_linear_4951_1656" x1="442.77" y1="401.341" x2="464.541" y2="401.341" gradientUnits="userSpaceOnUse">
<stop stop-color="#C95A1E"/>
<stop offset="1" stop-color="#FE912A"/>
</linearGradient>
<linearGradient id="paint63_linear_4951_1656" x1="437.865" y1="406.265" x2="459.812" y2="406.265" gradientUnits="userSpaceOnUse">
<stop stop-color="#C95A1E"/>
<stop offset="1" stop-color="#FE912A"/>
</linearGradient>
<linearGradient id="paint64_linear_4951_1656" x1="432.173" y1="410.845" x2="451.317" y2="410.845" gradientUnits="userSpaceOnUse">
<stop stop-color="#C95A1E"/>
<stop offset="1" stop-color="#FE912A"/>
</linearGradient>
<linearGradient id="paint65_linear_4951_1656" x1="425.76" y1="415.038" x2="442.599" y2="415.038" gradientUnits="userSpaceOnUse">
<stop stop-color="#C95A1E"/>
<stop offset="1" stop-color="#FE912A"/>
</linearGradient>
<linearGradient id="paint66_linear_4951_1656" x1="418.698" y1="418.801" x2="433.142" y2="418.801" gradientUnits="userSpaceOnUse">
<stop stop-color="#C95A1E"/>
<stop offset="1" stop-color="#FE912A"/>
</linearGradient>
<linearGradient id="paint67_linear_4951_1656" x1="411.045" y1="422.084" x2="423.311" y2="422.084" gradientUnits="userSpaceOnUse">
<stop stop-color="#C95A1E"/>
<stop offset="1" stop-color="#FE912A"/>
</linearGradient>
<linearGradient id="paint68_linear_4951_1656" x1="402.901" y1="424.858" x2="411.877" y2="424.858" gradientUnits="userSpaceOnUse">
<stop stop-color="#C95A1E"/>
<stop offset="1" stop-color="#FE912A"/>
</linearGradient>
<linearGradient id="paint69_linear_4951_1656" x1="394.337" y1="427.085" x2="402.132" y2="427.085" gradientUnits="userSpaceOnUse">
<stop stop-color="#C95A1E"/>
<stop offset="1" stop-color="#FE912A"/>
</linearGradient>
<linearGradient id="paint70_linear_4951_1656" x1="385.463" y1="428.746" x2="391.998" y2="428.746" gradientUnits="userSpaceOnUse">
<stop stop-color="#C95A1E"/>
<stop offset="1" stop-color="#FE912A"/>
</linearGradient>
<linearGradient id="paint71_linear_4951_1656" x1="348.8" y1="429.453" x2="349.745" y2="429.453" gradientUnits="userSpaceOnUse">
<stop stop-color="#C95A1E"/>
<stop offset="1" stop-color="#FE912A"/>
</linearGradient>
<linearGradient id="paint72_linear_4951_1656" x1="376.375" y1="429.82" x2="381.57" y2="429.82" gradientUnits="userSpaceOnUse">
<stop stop-color="#C95A1E"/>
<stop offset="1" stop-color="#FE912A"/>
</linearGradient>
<linearGradient id="paint73_linear_4951_1656" x1="357.937" y1="430.175" x2="360.33" y2="430.175" gradientUnits="userSpaceOnUse">
<stop stop-color="#C95A1E"/>
<stop offset="1" stop-color="#FE912A"/>
</linearGradient>
<linearGradient id="paint74_linear_4951_1656" x1="367.161" y1="430.297" x2="370.976" y2="430.297" gradientUnits="userSpaceOnUse">
<stop stop-color="#C95A1E"/>
<stop offset="1" stop-color="#FE912A"/>
</linearGradient>
<linearGradient id="paint75_linear_4951_1656" x1="264.119" y1="379.386" x2="278.212" y2="379.386" gradientUnits="userSpaceOnUse">
<stop stop-color="#C95A1E"/>
<stop offset="1" stop-color="#FE912A"/>
</linearGradient>
<linearGradient id="paint76_linear_4951_1656" x1="265.335" y1="385.095" x2="279.553" y2="385.095" gradientUnits="userSpaceOnUse">
<stop stop-color="#C95A1E"/>
<stop offset="1" stop-color="#FE912A"/>
</linearGradient>
<linearGradient id="paint77_linear_4951_1656" x1="267.651" y1="390.699" x2="281.836" y2="390.699" gradientUnits="userSpaceOnUse">
<stop stop-color="#C95A1E"/>
<stop offset="1" stop-color="#FE912A"/>
</linearGradient>
<linearGradient id="paint78_linear_4951_1656" x1="280.057" y1="396.135" x2="253.174" y2="396.135" gradientUnits="userSpaceOnUse">
<stop stop-color="#C95A1E"/>
<stop offset="1" stop-color="#FE912A"/>
</linearGradient>
<linearGradient id="paint79_linear_4951_1656" x1="288.951" y1="401.343" x2="257.045" y2="401.343" gradientUnits="userSpaceOnUse">
<stop stop-color="#C95A1E"/>
<stop offset="1" stop-color="#FE912A"/>
</linearGradient>
<linearGradient id="paint80_linear_4951_1656" x1="293.944" y1="406.263" x2="264.66" y2="406.263" gradientUnits="userSpaceOnUse">
<stop stop-color="#C95A1E"/>
<stop offset="1" stop-color="#FE912A"/>
</linearGradient>
<linearGradient id="paint81_linear_4951_1656" x1="299.716" y1="410.847" x2="275.481" y2="410.847" gradientUnits="userSpaceOnUse">
<stop stop-color="#C95A1E"/>
<stop offset="1" stop-color="#FE912A"/>
</linearGradient>
<linearGradient id="paint82_linear_4951_1656" x1="306.426" y1="415.039" x2="283.49" y2="415.039" gradientUnits="userSpaceOnUse">
<stop stop-color="#C95A1E"/>
<stop offset="1" stop-color="#FE912A"/>
</linearGradient>
<linearGradient id="paint83_linear_4951_1656" x1="313.603" y1="418.801" x2="299.319" y2="418.801" gradientUnits="userSpaceOnUse">
<stop stop-color="#C95A1E"/>
<stop offset="1" stop-color="#FE912A"/>
</linearGradient>
<linearGradient id="paint84_linear_4951_1656" x1="320.937" y1="422.086" x2="311.045" y2="422.086" gradientUnits="userSpaceOnUse">
<stop stop-color="#C95A1E"/>
<stop offset="1" stop-color="#FE912A"/>
</linearGradient>
<linearGradient id="paint85_linear_4951_1656" x1="329.207" y1="424.857" x2="319.98" y2="424.857" gradientUnits="userSpaceOnUse">
<stop stop-color="#C95A1E"/>
<stop offset="1" stop-color="#FE912A"/>
</linearGradient>
<linearGradient id="paint86_linear_4951_1656" x1="337.946" y1="427.083" x2="330.375" y2="427.083" gradientUnits="userSpaceOnUse">
<stop stop-color="#C95A1E"/>
<stop offset="1" stop-color="#FE912A"/>
</linearGradient>
<linearGradient id="paint87_linear_4951_1656" x1="346.684" y1="428.746" x2="339.945" y2="428.746" gradientUnits="userSpaceOnUse">
<stop stop-color="#C95A1E"/>
<stop offset="1" stop-color="#FE912A"/>
</linearGradient>
<linearGradient id="paint88_linear_4951_1656" x1="382.552" y1="429.453" x2="383.401" y2="429.453" gradientUnits="userSpaceOnUse">
<stop stop-color="#C95A1E"/>
<stop offset="1" stop-color="#FE912A"/>
</linearGradient>
<linearGradient id="paint89_linear_4951_1656" x1="356.201" y1="429.821" x2="351.051" y2="429.821" gradientUnits="userSpaceOnUse">
<stop stop-color="#C95A1E"/>
<stop offset="1" stop-color="#FE912A"/>
</linearGradient>
<linearGradient id="paint90_linear_4951_1656" x1="374.613" y1="430.172" x2="371.653" y2="430.172" gradientUnits="userSpaceOnUse">
<stop stop-color="#C95A1E"/>
<stop offset="1" stop-color="#FE912A"/>
</linearGradient>
<linearGradient id="paint91_linear_4951_1656" x1="364.94" y1="430.294" x2="361.18" y2="430.294" gradientUnits="userSpaceOnUse">
<stop stop-color="#C95A1E"/>
<stop offset="1" stop-color="#FE912A"/>
</linearGradient>
</defs>
</svg>
